<?xml version="1.0" encoding="UTF-8"?>
<svg id="_图层_2" data-name=" 图层 2" xmlns="http://www.w3.org/2000/svg" xmlns:xlink="http://www.w3.org/1999/xlink" viewBox="0 0 595.3 841.9">
  <defs>
    <style>
      .cls-1 {
        isolation: isolate;
      }

      .cls-2, .cls-3 {
        stroke-width: 0px;
      }

      .cls-3, .cls-4 {
        fill: none;
      }

      .cls-5 {
        clip-path: url(#clippath-1);
      }

      .cls-6 {
        clip-path: url(#clippath);
      }

      .cls-4 {
        stroke: #000;
        stroke-linejoin: round;
        stroke-width: .53px;
      }
    </style>
    <clipPath id="clippath">
      <rect class="cls-3" width="595.3" height="841.9"/>
    </clipPath>
    <clipPath id="clippath-1">
      <rect class="cls-3" x="349.6" y="252.3" width="163.5" height="113.5"/>
    </clipPath>
  </defs>
  <g id="g64">
    <g class="cls-6">
      <g id="g63">
        <g id="g62">
          <g class="cls-5">
            <g id="g61">
              <g id="text14" class="cls-1">
                <path class="cls-2" d="m461.92,276.12h1.34l3.02,3.71v-2.85c0-.3-.03-.49-.1-.57-.09-.1-.23-.15-.43-.15h-.17v-.14h1.72v.14h-.17c-.21,0-.36.06-.44.19-.05.08-.08.25-.08.53v4.17h-.13l-3.26-3.98v3.04c0,.3.03.49.1.57.09.1.23.15.43.15h.17v.13h-1.72v-.13h.17c.21,0,.36-.06.45-.19.05-.08.08-.26.08-.53v-3.44c-.14-.17-.25-.28-.33-.33-.07-.05-.18-.1-.33-.15-.07-.02-.18-.03-.32-.03v-.14Z"/>
              </g>
              <line id="line14" class="cls-4" x1="482.6" y1="280.6" x2="468.2" y2="278.6"/>
              <g id="text15" class="cls-1">
                <path class="cls-2" d="m452.42,282.87h1.34l3.02,3.71v-2.85c0-.3-.03-.49-.1-.57-.09-.1-.23-.15-.43-.15h-.17v-.14h1.72v.14h-.18c-.21,0-.36.06-.44.19-.05.08-.08.25-.08.53v4.17h-.13l-3.26-3.98v3.04c0,.3.03.49.1.57.09.1.23.15.43.15h.17v.13h-1.72v-.13h.17c.21,0,.36-.06.45-.19.05-.08.08-.26.08-.53v-3.44c-.14-.17-.25-.28-.33-.33-.07-.05-.18-.1-.33-.15-.07-.02-.18-.03-.32-.03v-.14Z"/>
              </g>
              <line id="line15" class="cls-4" x1="461.1" y1="280.7" x2="458.7" y2="282.4"/>
              <line id="line16" class="cls-4" x1="458.8" y1="288.9" x2="463.4" y2="294"/>
              <g id="text16" class="cls-1">
                <path class="cls-2" d="m478.58,294.2h1.34l3.02,3.71v-2.85c0-.3-.03-.49-.1-.57-.09-.1-.23-.15-.43-.15h-.17v-.14h1.72v.14h-.17c-.21,0-.36.06-.45.19-.05.08-.08.25-.08.53v4.17h-.13l-3.26-3.98v3.04c0,.3.03.49.1.57.09.1.23.15.43.15h.17v.13h-1.72v-.13h.17c.21,0,.36-.06.45-.19.05-.08.08-.26.08-.53v-3.44c-.14-.17-.25-.28-.33-.33-.07-.05-.18-.1-.33-.15-.07-.02-.18-.03-.32-.03v-.14Z"/>
              </g>
              <line id="line17" class="cls-4" x1="463.4" y1="294" x2="477.7" y2="295.8"/>
              <line id="line18" class="cls-4" x1="465.9" y1="291.1" x2="478.1" y2="292.5"/>
              <g id="text18" class="cls-1">
                <path class="cls-2" d="m488.01,287.45h1.34l3.02,3.71v-2.85c0-.3-.03-.49-.1-.57-.09-.1-.23-.15-.43-.15h-.17v-.14h1.72v.14h-.18c-.21,0-.36.06-.44.19-.05.08-.08.25-.08.53v4.17h-.13l-3.26-3.98v3.04c0,.3.03.49.1.57.09.1.23.15.43.15h.17v.13h-1.72v-.13h.17c.21,0,.36-.06.45-.19.05-.08.08-.26.08-.53v-3.44c-.14-.17-.25-.28-.33-.33-.07-.05-.18-.1-.33-.15-.07-.02-.18-.03-.32-.03v-.14Z"/>
              </g>
              <line id="line19" class="cls-4" x1="484.9" y1="293.7" x2="487.2" y2="292"/>
              <line id="line20" class="cls-4" x1="487.4" y1="285.9" x2="482.6" y2="280.6"/>
              <line id="line21" class="cls-4" x1="461.3" y1="274.4" x2="456.4" y2="269"/>
              <line id="line22" class="cls-4" x1="494.6" y1="290" x2="508.3" y2="291.9"/>
              <g id="text22" class="cls-1">
                <path class="cls-2" d="m491.98,271.59c.64,0,1.2.24,1.67.73.47.49.71,1.1.71,1.83s-.24,1.38-.71,1.87c-.47.5-1.05.74-1.72.74s-1.25-.24-1.72-.73c-.46-.48-.69-1.11-.69-1.88s.27-1.43.8-1.92c.46-.43,1.02-.65,1.67-.65Zm-.07.27c-.44,0-.8.16-1.06.49-.33.41-.5,1.01-.5,1.79s.17,1.43.52,1.86c.27.33.62.5,1.05.5.46,0,.85-.18,1.15-.54s.46-.93.46-1.71c0-.85-.17-1.48-.5-1.89-.27-.33-.64-.5-1.11-.5Z"/>
              </g>
              <line id="line23" class="cls-4" x1="483.6" y1="281.1" x2="488.9" y2="277.1"/>
              <line id="line24" class="cls-4" x1="481.5" y1="280.1" x2="487.7" y2="275.4"/>
              <line id="line25" class="cls-4" x1="463.4" y1="294" x2="453.8" y2="300.7"/>
              <g id="text25" class="cls-1">
                <path class="cls-2" d="m437.18,298.52c.64,0,1.2.24,1.67.73.47.49.71,1.1.71,1.83s-.24,1.38-.71,1.87c-.47.5-1.05.74-1.72.74s-1.25-.24-1.72-.73c-.46-.48-.69-1.11-.69-1.88s.27-1.43.8-1.92c.46-.43,1.02-.65,1.67-.65Zm-.07.27c-.44,0-.8.16-1.06.49-.33.41-.5,1.01-.5,1.79s.17,1.43.52,1.86c.27.33.62.5,1.05.5.46,0,.85-.18,1.15-.54s.45-.93.45-1.71c0-.85-.17-1.48-.5-1.89-.27-.33-.64-.5-1.11-.5Z"/>
              </g>
              <line id="line26" class="cls-4" x1="453.8" y1="300.7" x2="440.7" y2="300.7"/>
              <g id="text26" class="cls-1">
                <path class="cls-2" d="m461.99,307.59c.64,0,1.2.24,1.67.73.47.49.71,1.1.71,1.83s-.24,1.38-.71,1.87c-.47.5-1.05.74-1.72.74s-1.25-.24-1.72-.73c-.46-.48-.7-1.11-.7-1.88s.27-1.43.8-1.92c.46-.43,1.02-.65,1.67-.65Zm-.07.27c-.44,0-.8.16-1.07.49-.33.41-.5,1.01-.5,1.79s.17,1.43.52,1.86c.26.33.62.5,1.05.5.46,0,.85-.18,1.15-.54s.45-.93.45-1.71c0-.85-.17-1.48-.5-1.89-.27-.33-.64-.5-1.11-.5Z"/>
              </g>
              <line id="line27" class="cls-4" x1="452.7" y1="301" x2="457.7" y2="306.7"/>
              <line id="line28" class="cls-4" x1="455.1" y1="300.3" x2="459.3" y2="305.3"/>
              <g id="text28" class="cls-1">
                <path class="cls-2" d="m368.75,280.01h1.34l3.02,3.71v-2.85c0-.3-.03-.49-.1-.57-.09-.1-.23-.15-.43-.15h-.17v-.14h1.72v.14h-.18c-.21,0-.36.06-.44.19-.05.08-.08.25-.08.53v4.17h-.13l-3.26-3.98v3.04c0,.3.03.49.1.57.09.1.23.15.43.15h.17v.13h-1.72v-.13h.17c.21,0,.36-.06.45-.19.05-.08.08-.26.08-.53v-3.44c-.14-.17-.25-.28-.33-.33-.07-.05-.18-.1-.33-.15-.07-.02-.18-.03-.32-.03v-.14Z"/>
              </g>
              <line id="line29" class="cls-4" x1="375.1" y1="286" x2="379.7" y2="291.1"/>
              <g id="text29" class="cls-1">
                <path class="cls-2" d="m394.61,291.2h1.34l3.02,3.71v-2.85c0-.3-.03-.49-.1-.57-.09-.1-.23-.15-.43-.15h-.17v-.14h1.72v.14h-.18c-.21,0-.36.06-.44.19-.05.08-.08.25-.08.53v4.17h-.13l-3.26-3.98v3.04c0,.3.03.49.1.57.09.1.23.15.43.15h.17v.13h-1.72v-.13h.17c.21,0,.36-.06.45-.19.05-.08.08-.26.08-.53v-3.44c-.14-.17-.25-.28-.33-.33-.07-.05-.18-.1-.33-.15-.07-.02-.18-.03-.32-.03v-.14Z"/>
              </g>
              <line id="line30" class="cls-4" x1="379.7" y1="291.1" x2="393.7" y2="292.8"/>
              <g id="text30" class="cls-1">
                <path class="cls-2" d="m405.11,283.26h1.34l3.02,3.71v-2.85c0-.3-.03-.49-.1-.57-.09-.1-.23-.15-.43-.15h-.17v-.14h1.72v.14h-.17c-.21,0-.36.06-.45.19-.05.08-.08.25-.08.53v4.17h-.13l-3.26-3.98v3.04c0,.3.03.49.1.57.09.1.23.15.43.15h.17v.13h-1.72v-.13h.17c.21,0,.36-.06.45-.19.05-.08.08-.26.08-.53v-3.44c-.14-.17-.25-.28-.33-.33-.07-.05-.18-.1-.33-.15-.07-.02-.18-.03-.32-.03v-.14Z"/>
              </g>
              <line id="line31" class="cls-4" x1="404.2" y1="282.2" x2="398.8" y2="277.7"/>
              <g id="text31" class="cls-1">
                <path class="cls-2" d="m378.26,273.27h1.34l3.02,3.71v-2.85c0-.3-.03-.49-.1-.57-.09-.1-.23-.15-.43-.15h-.17v-.14h1.72v.14h-.18c-.21,0-.36.06-.44.19-.05.08-.08.25-.08.53v4.17h-.13l-3.26-3.98v3.04c0,.3.03.49.1.57.09.1.23.15.43.15h.17v.13h-1.72v-.13h.17c.21,0,.36-.06.45-.19.05-.08.08-.26.08-.53v-3.44c-.14-.17-.25-.28-.33-.33-.07-.05-.18-.1-.33-.15-.07-.02-.18-.03-.32-.03v-.14Z"/>
              </g>
              <line id="line32" class="cls-4" x1="398.8" y1="277.7" x2="384.6" y2="275.7"/>
              <line id="line33" class="cls-4" x1="396.2" y1="280.6" x2="384.1" y2="278.9"/>
              <line id="line34" class="cls-4" x1="377.5" y1="277.8" x2="375.1" y2="279.6"/>
              <line id="line35" class="cls-4" x1="400.6" y1="297" x2="405.5" y2="302.5"/>
              <line id="line36" class="cls-4" x1="398.8" y1="277.7" x2="408.2" y2="271.1"/>
              <g id="text36" class="cls-1">
                <path class="cls-2" d="m423.16,268.89c.64,0,1.2.24,1.67.73.47.49.71,1.1.71,1.83s-.24,1.38-.71,1.87-1.05.74-1.72.74-1.25-.24-1.72-.73c-.46-.48-.69-1.11-.69-1.88s.27-1.43.8-1.92c.46-.43,1.02-.65,1.67-.65Zm-.07.27c-.44,0-.8.16-1.06.49-.33.41-.5,1.01-.5,1.79s.17,1.43.52,1.86c.27.33.62.5,1.05.5.46,0,.85-.18,1.15-.54s.45-.93.45-1.71c0-.85-.17-1.48-.5-1.89-.27-.33-.64-.5-1.11-.5Z"/>
              </g>
              <line id="line37" class="cls-4" x1="408.2" y1="271.1" x2="419.4" y2="271.1"/>
              <g id="text37" class="cls-1">
                <path class="cls-2" d="m399.98,259.8c.64,0,1.2.24,1.67.73.47.49.71,1.1.71,1.83s-.24,1.38-.71,1.87-1.05.74-1.72.74-1.25-.24-1.72-.73c-.46-.48-.69-1.11-.69-1.88s.27-1.43.8-1.92c.46-.43,1.02-.65,1.67-.65Zm-.07.27c-.44,0-.8.16-1.06.49-.33.41-.5,1.01-.5,1.79s.17,1.43.52,1.86c.27.33.62.5,1.05.5.46,0,.85-.18,1.15-.54s.45-.93.45-1.71c0-.85-.17-1.48-.5-1.89-.27-.33-.64-.5-1.11-.5Z"/>
              </g>
              <line id="line38" class="cls-4" x1="409.4" y1="270.8" x2="404.4" y2="265.2"/>
              <line id="line39" class="cls-4" x1="407" y1="271.5" x2="402.7" y2="266.7"/>
              <line id="line40" class="cls-4" x1="367.9" y1="281.6" x2="353.7" y2="279.7"/>
              <g id="text40" class="cls-1">
                <path class="cls-2" d="m427.22,283.26h1.34l3.02,3.71v-2.85c0-.3-.03-.49-.1-.57-.09-.1-.23-.15-.43-.15h-.17v-.14h1.72v.14h-.18c-.21,0-.36.06-.44.19-.05.08-.08.25-.08.53v4.17h-.13l-3.26-3.98v3.04c0,.3.03.49.1.57.09.1.23.15.43.15h.17v.13h-1.72v-.13h.17c.21,0,.36-.06.45-.19.05-.08.08-.26.08-.53v-3.44c-.14-.17-.25-.28-.33-.33-.07-.05-.18-.1-.33-.15-.07-.02-.18-.03-.32-.03v-.14Z"/>
              </g>
              <g id="text41" class="cls-1">
                <path class="cls-2" d="m434.12,284.77v2.68c0,.21.02.35.05.42.03.07.08.12.13.15s.17.05.33.05v.13h-1.62v-.13c.16,0,.27-.02.33-.05.06-.03.1-.08.13-.16.03-.07.05-.21.05-.42v-1.29c0-.36-.01-.6-.03-.7-.02-.08-.04-.13-.08-.16-.04-.03-.09-.04-.15-.04-.07,0-.15.02-.25.05l-.05-.13,1.01-.41h.16Zm-.3-1.75c.1,0,.19.04.26.11.07.07.11.16.11.26s-.04.19-.11.26c-.07.07-.16.11-.26.11s-.19-.04-.26-.11-.11-.16-.11-.26.04-.19.11-.26c.07-.07.16-.11.26-.11Z"/>
              </g>
              <line id="line41" class="cls-4" x1="411.6" y1="285.4" x2="426.5" y2="285.4"/>
              <line id="line42" class="cls-4" x1="428.3" y1="281.4" x2="424.8" y2="275"/>
              <line id="line43" class="cls-4" x1="435.6" y1="297" x2="432" y2="289.3"/>
              <line id="line44" class="cls-4" x1="435.9" y1="285" x2="451.6" y2="285"/>
              <g id="text44" class="cls-1">
                <path class="cls-2" d="m370.16,295.67c.64,0,1.2.24,1.67.73.47.49.71,1.1.71,1.83s-.24,1.38-.71,1.87-1.05.74-1.72.74-1.25-.24-1.72-.73c-.46-.48-.69-1.11-.69-1.88s.27-1.43.8-1.92c.46-.43,1.02-.65,1.67-.65Zm-.07.27c-.44,0-.8.16-1.06.49-.33.41-.5,1.01-.5,1.79s.17,1.43.52,1.86c.27.33.62.5,1.05.5.46,0,.85-.18,1.15-.54s.45-.93.45-1.71c0-.85-.17-1.48-.5-1.89-.27-.33-.64-.5-1.11-.5Z"/>
              </g>
              <line id="line45" class="cls-4" x1="378.6" y1="290.6" x2="373.1" y2="294.5"/>
              <line id="line46" class="cls-4" x1="380.9" y1="291.6" x2="374.3" y2="296.2"/>
              <line id="line47" class="cls-4" x1="400.9" y1="290.5" x2="404.2" y2="288"/>
              <g id="text47" class="cls-1">
                <path class="cls-2" d="m429.22,254.25c.64,0,1.2.24,1.67.73.47.49.71,1.1.71,1.83s-.24,1.38-.71,1.87-1.05.74-1.72.74-1.25-.24-1.72-.73c-.46-.48-.69-1.11-.69-1.88s.27-1.43.8-1.92c.46-.43,1.02-.65,1.67-.65Zm-.07.27c-.44,0-.8.16-1.06.49-.33.41-.5,1.01-.5,1.79s.17,1.43.52,1.86c.27.33.62.5,1.05.5.46,0,.85-.18,1.15-.54s.45-.93.45-1.71c0-.85-.17-1.48-.5-1.89-.27-.33-.64-.5-1.11-.5Z"/>
              </g>
              <g id="text48" class="cls-1">
                <path class="cls-2" d="m433.44,256.66h2.3v-1.42c0-.25-.02-.42-.05-.5-.02-.06-.08-.11-.15-.16-.1-.06-.22-.09-.33-.09h-.17v-.14h2.12v.14h-.17c-.12,0-.23.03-.33.08-.08.04-.13.1-.16.18-.03.08-.04.24-.04.48v3.19c0,.25.02.42.05.5.02.06.07.11.15.16.11.06.22.09.34.09h.17v.13h-2.12v-.13h.17c.2,0,.35-.06.44-.18.06-.08.09-.27.09-.56v-1.51h-2.3v1.51c0,.25.02.42.05.5.02.06.08.11.15.16.1.06.21.09.33.09h.18v.13h-2.12v-.13h.18c.2,0,.35-.06.44-.18.06-.08.09-.27.09-.56v-3.19c0-.25-.02-.42-.05-.5-.02-.06-.07-.11-.15-.16-.11-.06-.22-.09-.34-.09h-.18v-.14h2.12v.14h-.18c-.12,0-.23.03-.33.08-.08.04-.13.1-.16.18s-.04.24-.04.48v1.42Z"/>
              </g>
              <g id="text49" class="cls-1">
                <path class="cls-2" d="m439.63,261.16l-.23.63h-1.93v-.09c.57-.52.97-.94,1.2-1.27s.35-.63.35-.9c0-.21-.06-.38-.19-.51-.13-.13-.28-.2-.46-.2-.16,0-.31.05-.43.14s-.22.23-.28.41h-.09c.04-.3.14-.53.31-.69.17-.16.37-.24.62-.24.26,0,.49.08.66.25.18.17.27.37.27.6,0,.17-.04.33-.12.5-.12.26-.31.54-.58.83-.4.44-.65.7-.75.79h.85c.17,0,.29,0,.37-.02s.13-.04.19-.08.11-.1.15-.17h.09Z"/>
              </g>
              <line id="line49" class="cls-4" x1="429.9" y1="281.5" x2="429.3" y2="260.4"/>
              <g id="text50" class="cls-1">
                <path class="cls-2" d="m430.05,307.66c.64,0,1.2.24,1.67.73.47.49.71,1.1.71,1.83s-.24,1.38-.71,1.87-1.05.74-1.72.74-1.25-.24-1.72-.73c-.46-.48-.69-1.11-.69-1.88s.27-1.43.8-1.92c.46-.43,1.02-.65,1.67-.65Zm-.07.27c-.44,0-.8.16-1.06.49-.33.41-.5,1.01-.5,1.79s.17,1.43.52,1.86c.27.33.62.5,1.05.5.46,0,.85-.18,1.15-.54s.45-.93.45-1.71c0-.85-.17-1.48-.5-1.89-.27-.33-.64-.5-1.11-.5Z"/>
              </g>
              <g id="text51" class="cls-1">
                <path class="cls-2" d="m434.27,310.07h2.3v-1.42c0-.25-.02-.42-.05-.5-.02-.06-.08-.11-.15-.16-.1-.06-.22-.09-.33-.09h-.17v-.14h2.12v.14h-.17c-.12,0-.23.03-.33.08-.08.04-.13.1-.16.18-.03.08-.04.24-.04.48v3.19c0,.25.02.42.05.5.02.06.07.11.15.16.11.06.22.09.34.09h.17v.13h-2.12v-.13h.17c.2,0,.35-.06.44-.18.06-.08.09-.27.09-.56v-1.51h-2.3v1.51c0,.25.02.42.05.5.02.06.08.11.15.16.1.06.21.09.33.09h.18v.13h-2.12v-.13h.18c.2,0,.35-.06.44-.18.06-.08.09-.27.09-.56v-3.19c0-.25-.02-.42-.05-.5-.02-.06-.07-.11-.15-.16-.11-.06-.22-.09-.34-.09h-.18v-.14h2.12v.14h-.18c-.12,0-.23.03-.33.08-.08.04-.13.1-.16.18s-.04.24-.04.48v1.42Z"/>
              </g>
              <g id="text52" class="cls-1">
                <path class="cls-2" d="m440.45,314.57l-.23.63h-1.93v-.09c.57-.52.97-.94,1.2-1.27.23-.33.35-.63.35-.9,0-.21-.06-.38-.19-.51-.13-.13-.28-.2-.46-.2-.16,0-.3.05-.43.14s-.22.23-.28.41h-.09c.04-.3.14-.53.31-.69.17-.16.37-.24.62-.24.27,0,.49.08.67.25.18.17.27.37.27.6,0,.17-.04.33-.12.5-.12.26-.31.54-.58.83-.4.44-.65.7-.75.79h.85c.17,0,.3,0,.37-.02.07-.01.13-.04.19-.08.06-.04.1-.1.15-.17h.09Z"/>
              </g>
              <line id="line52" class="cls-4" x1="430" y1="289.2" x2="430" y2="306.3"/>
              <g id="text56" class="cls-1">
                <path class="cls-2" d="m454.6,281.14v-1.44h1.44v1.44h-1.44Z"/>
              </g>
              <g id="text57" class="cls-1">
                <path class="cls-2" d="m407.38,281.36v-1.44h1.44v1.44h-1.44Z"/>
              </g>
            </g>
          </g>
        </g>
      </g>
    </g>
  </g>
</svg>