<?xml version="1.0" encoding="UTF-8"?>
<svg id="_图层_2" data-name="图层 2" xmlns="http://www.w3.org/2000/svg" xmlns:xlink="http://www.w3.org/1999/xlink" viewBox="0 0 243 101.4">
  <defs>
    <style>
      .cls-1, .cls-2, .cls-3 {
        stroke-width: 0px;
      }

      .cls-4 {
        stroke: #fff;
        stroke-width: .05px;
      }

      .cls-4, .cls-2, .cls-5 {
        fill: none;
      }

      .cls-4, .cls-5 {
        stroke-linecap: round;
        stroke-miterlimit: 10;
      }

      .cls-5 {
        stroke: #000;
        stroke-width: .32px;
      }

      .cls-6 {
        clip-path: url(#clippath-1);
      }

      .cls-3 {
        fill: #fff;
      }

      .cls-7 {
        clip-path: url(#clippath);
      }
    </style>
    <clipPath id="clippath">
      <rect class="cls-2" width="243" height="101.4"/>
    </clipPath>
    <clipPath id="clippath-1">
      <rect class="cls-2" x="0" y="0" width="243" height="101.4"/>
    </clipPath>
  </defs>
  <g id="_图层_1-2" data-name="图层 1">
    <g class="cls-7">
      <g class="cls-6">
        <rect class="cls-3" x="-17.08" y="-14.17" width="276.62" height="126.86"/>
        <rect class="cls-4" x="-17.08" y="-14.17" width="276.62" height="126.86"/>
        <polyline class="cls-5" points="152.11 66.24 151.17 66.04 150.4 65.47 149.93 64.62 149.81 63.67 150.14 62.76 150.76 62.02 151.64 61.64 152.62 61.64 153.5 62.02 154.15 62.76 154.44 63.67 154.32 64.62 153.85 65.47 153.06 66.04 152.11 66.24"/>
        <line class="cls-5" x1="199" y1="64.06" x2="202.39" y2="60.63"/>
        <line class="cls-5" x1="203.68" y1="60.72" x2="199.08" y2="65.33"/>
        <line class="cls-5" x1="199.47" y1="66.33" x2="204.66" y2="61.14"/>
        <line class="cls-5" x1="205.45" y1="61.73" x2="200.09" y2="67.13"/>
        <line class="cls-5" x1="200.86" y1="67.72" x2="206.07" y2="62.53"/>
        <line class="cls-5" x1="206.46" y1="63.5" x2="201.86" y2="68.1"/>
        <line class="cls-5" x1="203.15" y1="68.22" x2="206.54" y2="64.8"/>
        <polyline class="cls-5" points="202.77 68.22 201.53 68.01 200.44 67.42 199.59 66.51 199.08 65.36 198.97 64.12 199.29 62.91 199.97 61.84 200.94 61.08 202.15 60.67 203.39 60.67 204.57 61.08 205.57 61.84 206.25 62.91 206.54 64.12 206.46 65.36 205.96 66.51 205.1 67.42 204.01 68.01 202.77 68.22"/>
        <polyline class="cls-5" points="157.92 92.77 157.01 92.56 156.24 92.03 155.77 91.21 155.68 90.26 155.95 89.38 156.59 88.67 157.45 88.29 158.39 88.29 159.25 88.67 159.9 89.38 160.19 90.26 160.08 91.21 159.6 92.03 158.83 92.56 157.92 92.77"/>
        <line class="cls-5" x1="151.52" y1="71.41" x2="151.93" y2="66.21"/>
        <line class="cls-5" x1="152.7" y1="77.22" x2="157.1" y2="88.4"/>
        <line class="cls-5" x1="148.37" y1="71.91" x2="147.81" y2="72.44"/>
        <line class="cls-5" x1="147.6" y1="73.35" x2="148.43" y2="72.53"/>
        <line class="cls-5" x1="148.6" y1="73.06" x2="147.57" y2="74.06"/>
        <line class="cls-5" x1="147.69" y1="74.65" x2="148.81" y2="73.53"/>
        <line class="cls-5" x1="149.07" y1="73.97" x2="147.84" y2="75.18"/>
        <line class="cls-5" x1="148.07" y1="75.66" x2="149.34" y2="74.36"/>
        <line class="cls-5" x1="149.67" y1="74.74" x2="148.34" y2="76.07"/>
        <line class="cls-5" x1="148.66" y1="76.45" x2="149.99" y2="75.12"/>
        <line class="cls-5" x1="150.34" y1="75.45" x2="149.05" y2="76.75"/>
        <line class="cls-5" x1="149.46" y1="77.04" x2="150.73" y2="75.74"/>
        <line class="cls-5" x1="151.14" y1="76.04" x2="149.93" y2="77.28"/>
        <line class="cls-5" x1="150.46" y1="77.43" x2="151.58" y2="76.3"/>
        <line class="cls-5" x1="152.06" y1="76.51" x2="151.05" y2="77.54"/>
        <line class="cls-5" x1="151.76" y1="77.51" x2="152.58" y2="76.69"/>
        <line class="cls-5" x1="153.2" y1="76.75" x2="152.76" y2="77.19"/>
        <polyline class="cls-5" points="151.32 77.54 150.11 77.34 149.02 76.75 148.19 75.83 147.69 74.71 147.57 73.47 147.9 72.26 148.57 71.23 149.55 70.46 150.73 70.08 150.99 70.08"/>
        <polyline class="cls-5" points="152.26 70.17 153.11 70.46 154.09 71.23 154.77 72.26 155.09 73.47 154.97 74.71 154.47 75.83 153.65 76.75 152.82 77.19"/>
        <line class="cls-5" x1="152.53" y1="77.34" x2="151.32" y2="77.54"/>
        <line class="cls-5" x1="57.93" y1="70.05" x2="61.18" y2="66.8"/>
        <line class="cls-5" x1="62.5" y1="66.86" x2="57.99" y2="71.38"/>
        <line class="cls-5" x1="58.4" y1="72.35" x2="63.48" y2="67.27"/>
        <line class="cls-5" x1="64.27" y1="67.86" x2="58.99" y2="73.15"/>
        <line class="cls-5" x1="59.79" y1="73.74" x2="64.86" y2="68.66"/>
        <line class="cls-5" x1="65.27" y1="69.64" x2="60.76" y2="74.15"/>
        <line class="cls-5" x1="62.09" y1="74.21" x2="65.33" y2="70.96"/>
        <polyline class="cls-5" points="61.62 74.24 60.44 74.03 59.35 73.44 58.52 72.56 58.02 71.41 57.9 70.2 58.23 69.02 58.9 67.98 59.85 67.22 61.03 66.83 62.24 66.83 63.41 67.22 64.39 67.98 65.07 69.02 65.36 70.2 65.24 71.41 64.77 72.56 63.92 73.44 62.85 74.03 61.62 74.24"/>
        <line class="cls-5" x1="136.45" y1="74.77" x2="147.57" y2="74.03"/>
        <polyline class="cls-5" points="134.33 77.16 133.45 76.95 132.68 76.42 132.21 75.6 132.12 74.68 132.41 73.8 133.03 73.12 133.89 72.73 134.8 72.73 135.66 73.12 136.28 73.8 136.51 74.59"/>
        <polyline class="cls-5" points="136.51 74.92 136.45 75.6 136.01 76.42 135.25 76.95 134.33 77.16"/>
        <line class="cls-5" x1="192.66" y1="59.1" x2="199.41" y2="62.67"/>
        <line class="cls-5" x1="187.64" y1="56.03" x2="187.17" y2="56.5"/>
        <line class="cls-5" x1="186.91" y1="57.48" x2="187.67" y2="56.68"/>
        <line class="cls-5" x1="187.82" y1="57.21" x2="186.88" y2="58.19"/>
        <line class="cls-5" x1="186.97" y1="58.81" x2="188.06" y2="57.71"/>
        <line class="cls-5" x1="188.29" y1="58.16" x2="187.11" y2="59.33"/>
        <line class="cls-5" x1="187.32" y1="59.81" x2="188.59" y2="58.54"/>
        <line class="cls-5" x1="188.91" y1="58.92" x2="187.62" y2="60.22"/>
        <line class="cls-5" x1="187.94" y1="60.61" x2="189.24" y2="59.31"/>
        <line class="cls-5" x1="189.59" y1="59.63" x2="188.29" y2="60.93"/>
        <line class="cls-5" x1="188.71" y1="61.19" x2="189.97" y2="59.93"/>
        <line class="cls-5" x1="190.39" y1="60.22" x2="189.21" y2="61.4"/>
        <line class="cls-5" x1="189.74" y1="61.58" x2="190.83" y2="60.49"/>
        <line class="cls-5" x1="191.3" y1="60.69" x2="190.33" y2="61.67"/>
        <line class="cls-5" x1="191.06" y1="61.64" x2="191.83" y2="60.84"/>
        <line class="cls-5" x1="192.51" y1="60.87" x2="192.04" y2="61.34"/>
        <polyline class="cls-5" points="190.53 61.67 189.36 61.46 188.26 60.9 187.47 60.02 186.97 58.89 186.88 57.68 187.17 56.53 187.82 55.5 188.8 54.76 189.92 54.38 191.12 54.38 192.27 54.76 193.25 55.5 193.9 56.53 194.19 57.68 194.1 58.89 193.98 59.13"/>
        <polyline class="cls-5" points="193.42 60.19 192.78 60.9 191.71 61.46 190.53 61.67"/>
        <polyline class="cls-5" points="231.67 33.69 230.75 33.51 230.02 32.95 229.55 32.19 229.46 31.27 229.75 30.39 230.37 29.71 231.2 29.35 232.11 29.35 232.94 29.71 233.56 30.39 233.85 31.27 233.73 32.19 233.29 32.95 232.55 33.51 231.67 33.69"/>
        <line class="cls-5" x1="163.5" y1="63.7" x2="154.23" y2="71.38"/>
        <line class="cls-5" x1="169.22" y1="61.34" x2="186.91" y2="58.57"/>
        <path class="cls-1" d="m162.2,60.97h.03c.12,0,.22.1.22.22s-.1.22-.22.22h-.03c-.12,0-.22-.1-.22-.22s.1-.22.22-.22Z"/>
        <path class="cls-1" d="m162.9,60.27h.03c.12,0,.22.1.22.22s-.1.22-.22.22h-.03c-.12,0-.22-.1-.22-.22s.1-.22.22-.22Z"/>
        <path class="cls-1" d="m163.61,59.59h.03c.12,0,.22.1.22.22s-.1.22-.22.22h-.03c-.12,0-.22-.1-.22-.22s.1-.22.22-.22Z"/>
        <path class="cls-1" d="m164.29,58.88h.03c.12,0,.22.1.22.22s-.1.22-.22.22h-.03c-.12,0-.22-.1-.22-.22s.1-.22.22-.22Z"/>
        <path class="cls-1" d="m165,58.2h.03c.12,0,.22.1.22.22s-.1.22-.22.22h-.03c-.12,0-.22-.1-.22-.22s.1-.22.22-.22Z"/>
        <path class="cls-1" d="m162.2,62.36h.03c.12,0,.22.1.22.22s-.1.22-.22.22h-.03c-.12,0-.22-.1-.22-.22s.1-.22.22-.22Z"/>
        <path class="cls-1" d="m162.9,61.65h.03c.12,0,.22.1.22.22s-.1.22-.22.22h-.03c-.12,0-.22-.1-.22-.22s.1-.22.22-.22Z"/>
        <path class="cls-1" d="m163.61,60.97h.03c.12,0,.22.1.22.22s-.1.22-.22.22h-.03c-.12,0-.22-.1-.22-.22s.1-.22.22-.22Z"/>
        <path class="cls-1" d="m164.29,60.27h.03c.12,0,.22.1.22.22s-.1.22-.22.22h-.03c-.12,0-.22-.1-.22-.22s.1-.22.22-.22Z"/>
        <path class="cls-1" d="m165,59.59h.03c.12,0,.22.1.22.22s-.1.22-.22.22h-.03c-.12,0-.22-.1-.22-.22s.1-.22.22-.22Z"/>
        <path class="cls-1" d="m165.68,58.88h.03c.12,0,.22.1.22.22s-.1.22-.22.22h-.03c-.12,0-.22-.1-.22-.22s.1-.22.22-.22Z"/>
        <path class="cls-1" d="m166.38,58.2h.03c.12,0,.22.1.22.22s-.1.22-.22.22h-.03c-.12,0-.22-.1-.22-.22s.1-.22.22-.22Z"/>
        <path class="cls-1" d="m162.9,63.04h.03c.12,0,.22.1.22.22s-.1.22-.22.22h-.03c-.12,0-.22-.1-.22-.22s.1-.22.22-.22Z"/>
        <path class="cls-1" d="m163.61,62.36h.03c.12,0,.22.1.22.22s-.1.22-.22.22h-.03c-.12,0-.22-.1-.22-.22s.1-.22.22-.22Z"/>
        <path class="cls-1" d="m164.29,61.65h.03c.12,0,.22.1.22.22s-.1.22-.22.22h-.03c-.12,0-.22-.1-.22-.22s.1-.22.22-.22Z"/>
        <path class="cls-1" d="m165,60.97h.03c.12,0,.22.1.22.22s-.1.22-.22.22h-.03c-.12,0-.22-.1-.22-.22s.1-.22.22-.22Z"/>
        <path class="cls-1" d="m165.68,60.27h.03c.12,0,.22.1.22.22s-.1.22-.22.22h-.03c-.12,0-.22-.1-.22-.22s.1-.22.22-.22Z"/>
        <path class="cls-1" d="m166.38,59.59h.03c.12,0,.22.1.22.22s-.1.22-.22.22h-.03c-.12,0-.22-.1-.22-.22s.1-.22.22-.22Z"/>
        <path class="cls-1" d="m167.06,58.88h.03c.12,0,.22.1.22.22s-.1.22-.22.22h-.03c-.12,0-.22-.1-.22-.22s.1-.22.22-.22Z"/>
        <path class="cls-1" d="m163.61,63.75h.03c.12,0,.22.1.22.22s-.1.22-.22.22h-.03c-.12,0-.22-.1-.22-.22s.1-.22.22-.22Z"/>
        <path class="cls-1" d="m164.29,63.04h.03c.12,0,.22.1.22.22s-.1.22-.22.22h-.03c-.12,0-.22-.1-.22-.22s.1-.22.22-.22Z"/>
        <path class="cls-1" d="m165,62.36h.03c.12,0,.22.1.22.22s-.1.22-.22.22h-.03c-.12,0-.22-.1-.22-.22s.1-.22.22-.22Z"/>
        <path class="cls-1" d="m165.68,61.65h.03c.12,0,.22.1.22.22s-.1.22-.22.22h-.03c-.12,0-.22-.1-.22-.22s.1-.22.22-.22Z"/>
        <path class="cls-1" d="m166.38,60.97h.03c.12,0,.22.1.22.22s-.1.22-.22.22h-.03c-.12,0-.22-.1-.22-.22s.1-.22.22-.22Z"/>
        <path class="cls-1" d="m167.06,60.27h.03c.12,0,.22.1.22.22s-.1.22-.22.22h-.03c-.12,0-.22-.1-.22-.22s.1-.22.22-.22Z"/>
        <path class="cls-1" d="m167.77,59.59h.03c.12,0,.22.1.22.22s-.1.22-.22.22h-.03c-.12,0-.22-.1-.22-.22s.1-.22.22-.22Z"/>
        <path class="cls-1" d="m164.29,64.46h.03c.12,0,.22.1.22.22s-.1.22-.22.22h-.03c-.12,0-.22-.1-.22-.22s.1-.22.22-.22Z"/>
        <path class="cls-1" d="m165,63.75h.03c.12,0,.22.1.22.22s-.1.22-.22.22h-.03c-.12,0-.22-.1-.22-.22s.1-.22.22-.22Z"/>
        <path class="cls-1" d="m165.68,63.04h.03c.12,0,.22.1.22.22s-.1.22-.22.22h-.03c-.12,0-.22-.1-.22-.22s.1-.22.22-.22Z"/>
        <path class="cls-1" d="m166.38,62.36h.03c.12,0,.22.1.22.22s-.1.22-.22.22h-.03c-.12,0-.22-.1-.22-.22s.1-.22.22-.22Z"/>
        <path class="cls-1" d="m167.06,61.65h.03c.12,0,.22.1.22.22s-.1.22-.22.22h-.03c-.12,0-.22-.1-.22-.22s.1-.22.22-.22Z"/>
        <path class="cls-1" d="m167.77,60.97h.03c.12,0,.22.1.22.22s-.1.22-.22.22h-.03c-.12,0-.22-.1-.22-.22s.1-.22.22-.22Z"/>
        <path class="cls-1" d="m168.45,60.27h.03c.12,0,.22.1.22.22s-.1.22-.22.22h-.03c-.12,0-.22-.1-.22-.22s.1-.22.22-.22Z"/>
        <path class="cls-1" d="m165,65.13h.03c.12,0,.22.1.22.22s-.1.22-.22.22h-.03c-.12,0-.22-.1-.22-.22s.1-.22.22-.22Z"/>
        <path class="cls-1" d="m165.68,64.46h.03c.12,0,.22.1.22.22s-.1.22-.22.22h-.03c-.12,0-.22-.1-.22-.22s.1-.22.22-.22Z"/>
        <path class="cls-1" d="m166.38,63.75h.03c.12,0,.22.1.22.22s-.1.22-.22.22h-.03c-.12,0-.22-.1-.22-.22s.1-.22.22-.22Z"/>
        <path class="cls-1" d="m167.06,63.04h.03c.12,0,.22.1.22.22s-.1.22-.22.22h-.03c-.12,0-.22-.1-.22-.22s.1-.22.22-.22Z"/>
        <path class="cls-1" d="m167.77,62.36h.03c.12,0,.22.1.22.22s-.1.22-.22.22h-.03c-.12,0-.22-.1-.22-.22s.1-.22.22-.22Z"/>
        <path class="cls-1" d="m168.45,61.65h.03c.12,0,.22.1.22.22s-.1.22-.22.22h-.03c-.12,0-.22-.1-.22-.22s.1-.22.22-.22Z"/>
        <path class="cls-1" d="m169.15,60.97h.03c.12,0,.22.1.22.22s-.1.22-.22.22h-.03c-.12,0-.22-.1-.22-.22s.1-.22.22-.22Z"/>
        <path class="cls-1" d="m166.38,65.13h.03c.12,0,.22.1.22.22s-.1.22-.22.22h-.03c-.12,0-.22-.1-.22-.22s.1-.22.22-.22Z"/>
        <path class="cls-1" d="m167.06,64.46h.03c.12,0,.22.1.22.22s-.1.22-.22.22h-.03c-.12,0-.22-.1-.22-.22s.1-.22.22-.22Z"/>
        <path class="cls-1" d="m167.77,63.75h.03c.12,0,.22.1.22.22s-.1.22-.22.22h-.03c-.12,0-.22-.1-.22-.22s.1-.22.22-.22Z"/>
        <path class="cls-1" d="m168.45,63.04h.03c.12,0,.22.1.22.22s-.1.22-.22.22h-.03c-.12,0-.22-.1-.22-.22s.1-.22.22-.22Z"/>
        <path class="cls-1" d="m169.15,62.36h.03c.12,0,.22.1.22.22s-.1.22-.22.22h-.03c-.12,0-.22-.1-.22-.22s.1-.22.22-.22Z"/>
        <polyline class="cls-5" points="165.68 65.53 164.5 65.33 163.43 64.77 163.23 64.53"/>
        <polyline class="cls-5" points="162.61 63.79 162.14 62.79 162.05 61.58 162.34 60.43 162.99 59.42 163.94 58.69 165.09 58.3 166.27 58.3 167.42 58.69 168.36 59.42 169.01 60.43 169.22 61.23"/>
        <polyline class="cls-5" points="169.28 61.49 169.3 61.58 169.22 62.79 168.71 63.88 167.92 64.77 166.86 65.33 165.68 65.53"/>
        <line class="cls-5" x1="95.59" y1="60.28" x2="98.62" y2="57.27"/>
        <line class="cls-5" x1="99.98" y1="57.33" x2="95.64" y2="61.64"/>
        <line class="cls-5" x1="96.03" y1="62.64" x2="100.98" y2="57.71"/>
        <line class="cls-5" x1="101.75" y1="58.3" x2="96.62" y2="63.44"/>
        <line class="cls-5" x1="97.41" y1="64.03" x2="102.37" y2="59.1"/>
        <line class="cls-5" x1="102.75" y1="60.1" x2="98.42" y2="64.41"/>
        <line class="cls-5" x1="99.77" y1="64.44" x2="102.78" y2="61.43"/>
        <polyline class="cls-5" points="99.18 64.5 98.01 64.3 96.97 63.74 96.15 62.85 95.67 61.76 95.59 60.58 95.85 59.4 96.53 58.39 97.47 57.65 98.59 57.27 99.77 57.27 100.92 57.65 101.87 58.39 102.52 59.4 102.81 60.58 102.72 61.76 102.22 62.85 101.42 63.74 100.36 64.3 99.18 64.5"/>
        <line class="cls-5" x1="74.12" y1="64.41" x2="64.98" y2="68.87"/>
        <line class="cls-5" x1="80.25" y1="62.82" x2="95.59" y2="61.23"/>
        <line class="cls-5" x1="73.8" y1="61.17" x2="73.38" y2="61.58"/>
        <line class="cls-5" x1="73.06" y1="62.61" x2="73.82" y2="61.84"/>
        <line class="cls-5" x1="73.97" y1="62.4" x2="73.03" y2="63.35"/>
        <line class="cls-5" x1="73.12" y1="63.94" x2="74.18" y2="62.88"/>
        <line class="cls-5" x1="74.44" y1="63.32" x2="73.44" y2="64.32"/>
        <line class="cls-5" x1="74.09" y1="64.32" x2="74.71" y2="63.74"/>
        <line class="cls-5" x1="75.03" y1="64.12" x2="73.77" y2="65.39"/>
        <line class="cls-5" x1="74.09" y1="65.74" x2="75.36" y2="64.47"/>
        <line class="cls-5" x1="75.71" y1="64.8" x2="74.44" y2="66.06"/>
        <line class="cls-5" x1="74.89" y1="66.36" x2="76.1" y2="65.12"/>
        <line class="cls-5" x1="76.51" y1="65.39" x2="75.33" y2="66.57"/>
        <line class="cls-5" x1="75.89" y1="66.71" x2="76.95" y2="65.65"/>
        <line class="cls-5" x1="77.42" y1="65.86" x2="76.48" y2="66.8"/>
        <line class="cls-5" x1="77.22" y1="66.77" x2="77.98" y2="66.01"/>
        <line class="cls-5" x1="78.66" y1="66.04" x2="78.25" y2="66.45"/>
        <polyline class="cls-5" points="76.66 66.8 75.47 66.63 74.42 66.04 73.65 65.21"/>
        <polyline class="cls-5" points="73.24 64.3 73.12 64.09 73.03 62.88 73.32 61.73 73.97 60.72 74.92 59.98 76.03 59.6 77.24 59.6 78.37 59.98 79.31 60.72 79.96 61.73 80.22 62.79"/>
        <polyline class="cls-5" points="80.25 62.91 80.16 64.09 79.69 65.18 78.87 66.04 77.84 66.63 76.66 66.8"/>
        <polyline class="cls-5" points="122.39 14.69 121.51 14.48 120.8 13.95 120.32 13.18 120.24 12.27 120.53 11.41 121.12 10.76 121.95 10.38 122.83 10.38 123.66 10.76 124.28 11.41 124.54 12.27 124.45 13.18 124.01 13.95 123.27 14.48 122.39 14.69"/>
        <polyline class="cls-5" points="235.47 59.37 234.59 59.16 233.85 58.66 233.41 57.86 233.32 56.98 233.59 56.12 234.21 55.44 235 55.09 235.91 55.09 236.71 55.44 237.33 56.12 237.6 56.98 237.51 57.86 237.07 58.66 236.33 59.16 235.47 59.37"/>
        <line class="cls-5" x1="227.72" y1="40.01" x2="230.73" y2="33.49"/>
        <line class="cls-5" x1="228.43" y1="45.41" x2="234.35" y2="55.35"/>
        <line class="cls-5" x1="223.85" y1="40.3" x2="223.5" y2="40.66"/>
        <line class="cls-5" x1="223.12" y1="41.72" x2="223.85" y2="41.01"/>
        <line class="cls-5" x1="224" y1="41.57" x2="223.06" y2="42.49"/>
        <line class="cls-5" x1="223.15" y1="43.11" x2="224.21" y2="42.04"/>
        <line class="cls-5" x1="224.45" y1="42.49" x2="223.29" y2="43.64"/>
        <line class="cls-5" x1="223.5" y1="44.11" x2="224.71" y2="42.9"/>
        <line class="cls-5" x1="225.01" y1="43.28" x2="223.8" y2="44.52"/>
        <line class="cls-5" x1="224.12" y1="44.91" x2="225.36" y2="43.64"/>
        <line class="cls-5" x1="225.71" y1="43.96" x2="224.47" y2="45.23"/>
        <line class="cls-5" x1="224.86" y1="45.5" x2="226.1" y2="44.29"/>
        <line class="cls-5" x1="226.51" y1="44.58" x2="225.36" y2="45.73"/>
        <line class="cls-5" x1="225.89" y1="45.88" x2="226.95" y2="44.82"/>
        <line class="cls-5" x1="227.42" y1="45.02" x2="226.51" y2="45.94"/>
        <line class="cls-5" x1="227.24" y1="45.91" x2="227.98" y2="45.17"/>
        <line class="cls-5" x1="228.69" y1="45.17" x2="228.45" y2="45.38"/>
        <polyline class="cls-5" points="226.6 45.94 225.45 45.76 224.45 45.2 223.65 44.32 223.18 43.25 223.09 42.07 223.35 40.92 224 39.95 224.92 39.24 226.01 38.86 227.19 38.86 227.6 38.98"/>
        <polyline class="cls-5" points="228.57 39.42 229.25 39.95 229.9 40.92 230.17 42.07 230.08 43.25 229.61 44.32 228.81 45.2 228.48 45.38"/>
        <polyline class="cls-5" points="228.36 45.44 227.78 45.76 226.6 45.94"/>
        <line class="cls-5" x1="199.14" y1="48.92" x2="193.07" y2="55.32"/>
        <line class="cls-5" x1="204.33" y1="46.44" x2="223.12" y2="43.02"/>
        <path class="cls-1" d="m197.38,46.19h.03c.12,0,.22.1.22.22s-.1.22-.22.22h-.03c-.12,0-.22-.1-.22-.22s.1-.22.22-.22Z"/>
        <path class="cls-1" d="m198.08,45.48h.03c.12,0,.22.1.22.22s-.1.22-.22.22h-.03c-.12,0-.22-.1-.22-.22s.1-.22.22-.22Z"/>
        <path class="cls-1" d="m198.76,44.8h.03c.12,0,.22.1.22.22s-.1.22-.22.22h-.03c-.12,0-.22-.1-.22-.22s.1-.22.22-.22Z"/>
        <path class="cls-1" d="m199.47,44.1h.03c.12,0,.22.1.22.22s-.1.22-.22.22h-.03c-.12,0-.22-.1-.22-.22s.1-.22.22-.22Z"/>
        <path class="cls-1" d="m200.15,43.41h.03c.12,0,.22.1.22.22s-.1.22-.22.22h-.03c-.12,0-.22-.1-.22-.22s.1-.22.22-.22Z"/>
        <path class="cls-1" d="m197.38,47.58h.03c.12,0,.22.1.22.22s-.1.22-.22.22h-.03c-.12,0-.22-.1-.22-.22s.1-.22.22-.22Z"/>
        <path class="cls-1" d="m198.08,46.87h.03c.12,0,.22.1.22.22s-.1.22-.22.22h-.03c-.12,0-.22-.1-.22-.22s.1-.22.22-.22Z"/>
        <path class="cls-1" d="m198.76,46.19h.03c.12,0,.22.1.22.22s-.1.22-.22.22h-.03c-.12,0-.22-.1-.22-.22s.1-.22.22-.22Z"/>
        <path class="cls-1" d="m199.47,45.48h.03c.12,0,.22.1.22.22s-.1.22-.22.22h-.03c-.12,0-.22-.1-.22-.22s.1-.22.22-.22Z"/>
        <path class="cls-1" d="m200.15,44.8h.03c.12,0,.22.1.22.22s-.1.22-.22.22h-.03c-.12,0-.22-.1-.22-.22s.1-.22.22-.22Z"/>
        <path class="cls-1" d="m200.85,44.1h.03c.12,0,.22.1.22.22s-.1.22-.22.22h-.03c-.12,0-.22-.1-.22-.22s.1-.22.22-.22Z"/>
        <path class="cls-1" d="m201.53,43.41h.03c.12,0,.22.1.22.22s-.1.22-.22.22h-.03c-.12,0-.22-.1-.22-.22s.1-.22.22-.22Z"/>
        <path class="cls-1" d="m198.08,48.26h.03c.12,0,.22.1.22.22s-.1.22-.22.22h-.03c-.12,0-.22-.1-.22-.22s.1-.22.22-.22Z"/>
        <path class="cls-1" d="m198.76,47.58h.03c.12,0,.22.1.22.22s-.1.22-.22.22h-.03c-.12,0-.22-.1-.22-.22s.1-.22.22-.22Z"/>
        <path class="cls-1" d="m199.47,46.87h.03c.12,0,.22.1.22.22s-.1.22-.22.22h-.03c-.12,0-.22-.1-.22-.22s.1-.22.22-.22Z"/>
        <path class="cls-1" d="m200.15,46.19h.03c.12,0,.22.1.22.22s-.1.22-.22.22h-.03c-.12,0-.22-.1-.22-.22s.1-.22.22-.22Z"/>
        <path class="cls-1" d="m200.85,45.48h.03c.12,0,.22.1.22.22s-.1.22-.22.22h-.03c-.12,0-.22-.1-.22-.22s.1-.22.22-.22Z"/>
        <path class="cls-1" d="m201.53,44.8h.03c.12,0,.22.1.22.22s-.1.22-.22.22h-.03c-.12,0-.22-.1-.22-.22s.1-.22.22-.22Z"/>
        <path class="cls-1" d="m202.24,44.1h.03c.12,0,.22.1.22.22s-.1.22-.22.22h-.03c-.12,0-.22-.1-.22-.22s.1-.22.22-.22Z"/>
        <path class="cls-1" d="m199.47,48.26h.03c.12,0,.22.1.22.22s-.1.22-.22.22h-.03c-.12,0-.22-.1-.22-.22s.1-.22.22-.22Z"/>
        <path class="cls-1" d="m200.15,47.58h.03c.12,0,.22.1.22.22s-.1.22-.22.22h-.03c-.12,0-.22-.1-.22-.22s.1-.22.22-.22Z"/>
        <path class="cls-1" d="m200.85,46.87h.03c.12,0,.22.1.22.22s-.1.22-.22.22h-.03c-.12,0-.22-.1-.22-.22s.1-.22.22-.22Z"/>
        <path class="cls-1" d="m201.53,46.19h.03c.12,0,.22.1.22.22s-.1.22-.22.22h-.03c-.12,0-.22-.1-.22-.22s.1-.22.22-.22Z"/>
        <path class="cls-1" d="m202.24,45.48h.03c.12,0,.22.1.22.22s-.1.22-.22.22h-.03c-.12,0-.22-.1-.22-.22s.1-.22.22-.22Z"/>
        <path class="cls-1" d="m202.92,44.8h.03c.12,0,.22.1.22.22s-.1.22-.22.22h-.03c-.12,0-.22-.1-.22-.22s.1-.22.22-.22Z"/>
        <path class="cls-1" d="m199.47,49.64h.03c.12,0,.22.1.22.22s-.1.22-.22.22h-.03c-.12,0-.22-.1-.22-.22s.1-.22.22-.22Z"/>
        <path class="cls-1" d="m200.15,48.96h.03c.12,0,.22.1.22.22s-.1.22-.22.22h-.03c-.12,0-.22-.1-.22-.22s.1-.22.22-.22Z"/>
        <path class="cls-1" d="m200.85,48.26h.03c.12,0,.22.1.22.22s-.1.22-.22.22h-.03c-.12,0-.22-.1-.22-.22s.1-.22.22-.22Z"/>
        <path class="cls-1" d="m201.53,47.58h.03c.12,0,.22.1.22.22s-.1.22-.22.22h-.03c-.12,0-.22-.1-.22-.22s.1-.22.22-.22Z"/>
        <path class="cls-1" d="m202.24,46.87h.03c.12,0,.22.1.22.22s-.1.22-.22.22h-.03c-.12,0-.22-.1-.22-.22s.1-.22.22-.22Z"/>
        <path class="cls-1" d="m202.92,46.19h.03c.12,0,.22.1.22.22s-.1.22-.22.22h-.03c-.12,0-.22-.1-.22-.22s.1-.22.22-.22Z"/>
        <path class="cls-1" d="m203.63,45.48h.03c.12,0,.22.1.22.22s-.1.22-.22.22h-.03c-.12,0-.22-.1-.22-.22s.1-.22.22-.22Z"/>
        <path class="cls-1" d="m200.15,50.35h.03c.12,0,.22.1.22.22s-.1.22-.22.22h-.03c-.12,0-.22-.1-.22-.22s.1-.22.22-.22Z"/>
        <path class="cls-1" d="m200.85,49.64h.03c.12,0,.22.1.22.22s-.1.22-.22.22h-.03c-.12,0-.22-.1-.22-.22s.1-.22.22-.22Z"/>
        <path class="cls-1" d="m201.53,48.96h.03c.12,0,.22.1.22.22s-.1.22-.22.22h-.03c-.12,0-.22-.1-.22-.22s.1-.22.22-.22Z"/>
        <path class="cls-1" d="m202.24,48.26h.03c.12,0,.22.1.22.22s-.1.22-.22.22h-.03c-.12,0-.22-.1-.22-.22s.1-.22.22-.22Z"/>
        <path class="cls-1" d="m202.92,47.58h.03c.12,0,.22.1.22.22s-.1.22-.22.22h-.03c-.12,0-.22-.1-.22-.22s.1-.22.22-.22Z"/>
        <path class="cls-1" d="m203.63,46.87h.03c.12,0,.22.1.22.22s-.1.22-.22.22h-.03c-.12,0-.22-.1-.22-.22s.1-.22.22-.22Z"/>
        <path class="cls-1" d="m201.53,50.35h.03c.12,0,.22.1.22.22s-.1.22-.22.22h-.03c-.12,0-.22-.1-.22-.22s.1-.22.22-.22Z"/>
        <path class="cls-1" d="m202.24,49.64h.03c.12,0,.22.1.22.22s-.1.22-.22.22h-.03c-.12,0-.22-.1-.22-.22s.1-.22.22-.22Z"/>
        <path class="cls-1" d="m202.92,48.96h.03c.12,0,.22.1.22.22s-.1.22-.22.22h-.03c-.12,0-.22-.1-.22-.22s.1-.22.22-.22Z"/>
        <path class="cls-1" d="m203.63,48.26h.03c.12,0,.22.1.22.22s-.1.22-.22.22h-.03c-.12,0-.22-.1-.22-.22s.1-.22.22-.22Z"/>
        <path class="cls-1" d="m204.3,47.58h.03c.12,0,.22.1.22.22s-.1.22-.22.22h-.03c-.12,0-.22-.1-.22-.22s.1-.22.22-.22Z"/>
        <polyline class="cls-5" points="200.86 50.66 199.7 50.46 198.85 50.01"/>
        <polyline class="cls-5" points="198.05 49.25 197.88 49.04 197.4 47.98 197.32 46.79 197.58 45.67 198.23 44.67 199.17 43.96 200.26 43.58 201.44 43.58 202.54 43.96 203.48 44.67 204.1 45.67 204.39 46.79 204.3 47.98 203.83 49.04 203.04 49.89 202 50.46 200.86 50.66"/>
        <line class="cls-5" x1="120.03" y1="15.6" x2="121.06" y2="14.22"/>
        <line class="cls-5" x1="115.7" y1="16.02" x2="118.44" y2="13.3"/>
        <line class="cls-5" x1="119.68" y1="13.42" x2="115.67" y2="17.43"/>
        <line class="cls-5" x1="116.05" y1="18.44" x2="120.18" y2="14.3"/>
        <line class="cls-5" x1="120.47" y1="15.4" x2="116.64" y2="19.23"/>
        <line class="cls-5" x1="117.44" y1="19.83" x2="121.95" y2="15.34"/>
        <line class="cls-5" x1="122.6" y1="16.07" x2="118.44" y2="20.21"/>
        <line class="cls-5" x1="119.85" y1="20.21" x2="122.6" y2="17.46"/>
        <polyline class="cls-5" points="119.14 20.27 118 20.06 116.97 19.53 116.2 18.67 115.72 17.61 115.64 16.46 115.9 15.34 116.55 14.36 117.46 13.65 118.56 13.27 119.65 13.27"/>
        <polyline class="cls-5" points="122.36 15.37 122.65 16.46 122.54 17.61 122.09 18.67 121.3 19.53 120.27 20.06 119.14 20.27"/>
        <line class="cls-5" x1="155.36" y1="55.32" x2="162.61" y2="59.93"/>
        <path class="cls-1" d="m150.7,52.5h.03c.12,0,.22.1.22.22s-.1.22-.22.22h-.03c-.12,0-.22-.1-.22-.22s.1-.22.22-.22Z"/>
        <path class="cls-1" d="m151.41,51.83h.03c.12,0,.22.1.22.22s-.1.22-.22.22h-.03c-.12,0-.22-.1-.22-.22s.1-.22.22-.22Z"/>
        <path class="cls-1" d="m152.08,51.12h.03c.12,0,.22.1.22.22s-.1.22-.22.22h-.03c-.12,0-.22-.1-.22-.22s.1-.22.22-.22Z"/>
        <path class="cls-1" d="m150.7,53.89h.03c.12,0,.22.1.22.22s-.1.22-.22.22h-.03c-.12,0-.22-.1-.22-.22s.1-.22.22-.22Z"/>
        <path class="cls-1" d="m151.41,53.21h.03c.12,0,.22.1.22.22s-.1.22-.22.22h-.03c-.12,0-.22-.1-.22-.22s.1-.22.22-.22Z"/>
        <path class="cls-1" d="m152.08,52.5h.03c.12,0,.22.1.22.22s-.1.22-.22.22h-.03c-.12,0-.22-.1-.22-.22s.1-.22.22-.22Z"/>
        <path class="cls-1" d="m152.79,51.83h.03c.12,0,.22.1.22.22s-.1.22-.22.22h-.03c-.12,0-.22-.1-.22-.22s.1-.22.22-.22Z"/>
        <path class="cls-1" d="m153.47,51.12h.03c.12,0,.22.1.22.22s-.1.22-.22.22h-.03c-.12,0-.22-.1-.22-.22s.1-.22.22-.22Z"/>
        <path class="cls-1" d="m150.7,55.28h.03c.12,0,.22.1.22.22s-.1.22-.22.22h-.03c-.12,0-.22-.1-.22-.22s.1-.22.22-.22Z"/>
        <path class="cls-1" d="m151.41,54.6h.03c.12,0,.22.1.22.22s-.1.22-.22.22h-.03c-.12,0-.22-.1-.22-.22s.1-.22.22-.22Z"/>
        <path class="cls-1" d="m152.08,53.89h.03c.12,0,.22.1.22.22s-.1.22-.22.22h-.03c-.12,0-.22-.1-.22-.22s.1-.22.22-.22Z"/>
        <path class="cls-1" d="m152.79,53.21h.03c.12,0,.22.1.22.22s-.1.22-.22.22h-.03c-.12,0-.22-.1-.22-.22s.1-.22.22-.22Z"/>
        <path class="cls-1" d="m153.47,52.5h.03c.12,0,.22.1.22.22s-.1.22-.22.22h-.03c-.12,0-.22-.1-.22-.22s.1-.22.22-.22Z"/>
        <path class="cls-1" d="m154.18,51.83h.03c.12,0,.22.1.22.22s-.1.22-.22.22h-.03c-.12,0-.22-.1-.22-.22s.1-.22.22-.22Z"/>
        <path class="cls-1" d="m154.85,51.12h.03c.12,0,.22.1.22.22s-.1.22-.22.22h-.03c-.12,0-.22-.1-.22-.22s.1-.22.22-.22Z"/>
        <path class="cls-1" d="m151.41,55.99h.03c.12,0,.22.1.22.22s-.1.22-.22.22h-.03c-.12,0-.22-.1-.22-.22s.1-.22.22-.22Z"/>
        <path class="cls-1" d="m152.08,55.28h.03c.12,0,.22.1.22.22s-.1.22-.22.22h-.03c-.12,0-.22-.1-.22-.22s.1-.22.22-.22Z"/>
        <path class="cls-1" d="m152.79,54.6h.03c.12,0,.22.1.22.22s-.1.22-.22.22h-.03c-.12,0-.22-.1-.22-.22s.1-.22.22-.22Z"/>
        <path class="cls-1" d="m153.47,53.89h.03c.12,0,.22.1.22.22s-.1.22-.22.22h-.03c-.12,0-.22-.1-.22-.22s.1-.22.22-.22Z"/>
        <path class="cls-1" d="m154.18,53.21h.03c.12,0,.22.1.22.22s-.1.22-.22.22h-.03c-.12,0-.22-.1-.22-.22s.1-.22.22-.22Z"/>
        <path class="cls-1" d="m154.85,52.5h.03c.12,0,.22.1.22.22s-.1.22-.22.22h-.03c-.12,0-.22-.1-.22-.22s.1-.22.22-.22Z"/>
        <path class="cls-1" d="m155.56,51.83h.03c.12,0,.22.1.22.22s-.1.22-.22.22h-.03c-.12,0-.22-.1-.22-.22s.1-.22.22-.22Z"/>
        <path class="cls-1" d="m152.08,56.67h.03c.12,0,.22.1.22.22s-.1.22-.22.22h-.03c-.12,0-.22-.1-.22-.22s.1-.22.22-.22Z"/>
        <path class="cls-1" d="m152.79,55.99h.03c.12,0,.22.1.22.22s-.1.22-.22.22h-.03c-.12,0-.22-.1-.22-.22s.1-.22.22-.22Z"/>
        <path class="cls-1" d="m153.47,55.28h.03c.12,0,.22.1.22.22s-.1.22-.22.22h-.03c-.12,0-.22-.1-.22-.22s.1-.22.22-.22Z"/>
        <path class="cls-1" d="m154.18,54.6h.03c.12,0,.22.1.22.22s-.1.22-.22.22h-.03c-.12,0-.22-.1-.22-.22s.1-.22.22-.22Z"/>
        <path class="cls-1" d="m154.85,53.89h.03c.12,0,.22.1.22.22s-.1.22-.22.22h-.03c-.12,0-.22-.1-.22-.22s.1-.22.22-.22Z"/>
        <path class="cls-1" d="m155.56,53.21h.03c.12,0,.22.1.22.22s-.1.22-.22.22h-.03c-.12,0-.22-.1-.22-.22s.1-.22.22-.22Z"/>
        <path class="cls-1" d="m156.24,52.5h.03c.12,0,.22.1.22.22s-.1.22-.22.22h-.03c-.12,0-.22-.1-.22-.22s.1-.22.22-.22Z"/>
        <path class="cls-1" d="m153.47,56.67h.03c.12,0,.22.1.22.22s-.1.22-.22.22h-.03c-.12,0-.22-.1-.22-.22s.1-.22.22-.22Z"/>
        <path class="cls-1" d="m154.18,55.99h.03c.12,0,.22.1.22.22s-.1.22-.22.22h-.03c-.12,0-.22-.1-.22-.22s.1-.22.22-.22Z"/>
        <path class="cls-1" d="m154.85,55.28h.03c.12,0,.22.1.22.22s-.1.22-.22.22h-.03c-.12,0-.22-.1-.22-.22s.1-.22.22-.22Z"/>
        <path class="cls-1" d="m155.56,54.6h.03c.12,0,.22.1.22.22s-.1.22-.22.22h-.03c-.12,0-.22-.1-.22-.22s.1-.22.22-.22Z"/>
        <path class="cls-1" d="m156.24,53.89h.03c.12,0,.22.1.22.22s-.1.22-.22.22h-.03c-.12,0-.22-.1-.22-.22s.1-.22.22-.22Z"/>
        <path class="cls-1" d="m154.85,56.67h.03c.12,0,.22.1.22.22s-.1.22-.22.22h-.03c-.12,0-.22-.1-.22-.22s.1-.22.22-.22Z"/>
        <path class="cls-1" d="m155.56,55.99h.03c.12,0,.22.1.22.22s-.1.22-.22.22h-.03c-.12,0-.22-.1-.22-.22s.1-.22.22-.22Z"/>
        <polyline class="cls-5" points="153.47 57.65 152.32 57.45 151.32 56.89 150.55 56.06 150.08 55 149.99 53.85 150.25 52.73 150.9 51.75 151.82 51.04 152.91 50.66 154.06 50.66 155.15 51.04 156.06 51.75 156.68 52.73 156.98 53.85 156.89 55 156.68 55.47"/>
        <polyline class="cls-5" points="156.03 56.44 155.62 56.89 154.62 57.45 153.47 57.65"/>
        <line class="cls-5" x1="112.93" y1="6.13" x2="117.35" y2="13.72"/>
        <polyline class="cls-5" points="111.89 6.48 111.04 6.31 110.33 5.78 109.89 5.04 109.8 4.15 110.09 3.33 110.65 2.68 111.45 2.32 112.33 2.32 113.13 2.68 113.72 3.33 113.98 4.15 113.9 5.04 113.46 5.78 113.01 6.1"/>
        <polyline class="cls-5" points="112.81 6.25 112.75 6.31 111.89 6.48"/>
        <line class="cls-5" x1="229.93" y1="37.32" x2="229.81" y2="37.32"/>
        <polyline class="cls-5" points="228.4 36.67 228.36 36.64 227.95 35.88 227.84 35.02 228.13 34.19 228.69 33.55 229.37 33.25"/>
        <polyline class="cls-5" points="231.82 34.37 232.02 35.02 231.93 35.88 231.49 36.64 230.78 37.18 229.93 37.32"/>
        <line class="cls-5" x1="68.93" y1="57.12" x2="73.8" y2="60.93"/>
        <line class="cls-5" x1="64.95" y1="53.85" x2="64.74" y2="54.05"/>
        <line class="cls-5" x1="64.18" y1="55.3" x2="64.83" y2="54.65"/>
        <line class="cls-5" x1="64.98" y1="55.21" x2="64.1" y2="56.09"/>
        <line class="cls-5" x1="64.15" y1="56.71" x2="65.18" y2="55.71"/>
        <line class="cls-5" x1="65.42" y1="56.15" x2="64.3" y2="57.27"/>
        <line class="cls-5" x1="64.54" y1="57.74" x2="65.71" y2="56.56"/>
        <line class="cls-5" x1="66.01" y1="56.95" x2="64.8" y2="58.16"/>
        <line class="cls-5" x1="65.13" y1="58.54" x2="66.34" y2="57.3"/>
        <line class="cls-5" x1="66.72" y1="57.63" x2="65.48" y2="58.86"/>
        <line class="cls-5" x1="65.92" y1="59.13" x2="67.1" y2="57.95"/>
        <line class="cls-5" x1="67.52" y1="58.21" x2="66.4" y2="59.33"/>
        <line class="cls-5" x1="66.92" y1="59.48" x2="67.96" y2="58.48"/>
        <line class="cls-5" x1="68.43" y1="58.69" x2="67.57" y2="59.54"/>
        <line class="cls-5" x1="68.34" y1="59.46" x2="69.02" y2="58.81"/>
        <line class="cls-5" x1="69.78" y1="58.72" x2="69.61" y2="58.89"/>
        <polyline class="cls-5" points="67.57 59.54 66.45 59.37 65.45 58.81 64.66 57.98 64.21 56.92 64.12 55.79 64.39 54.67 65.01 53.73 65.92 53.02 67.01 52.64 68.13 52.64 69.22 53.02 70.14 53.73 70.76 54.67 71.05 55.79 70.94 56.92 70.67 57.6"/>
        <polyline class="cls-5" points="69.78 58.72 69.73 58.81 68.72 59.37 67.57 59.54"/>
        <line class="cls-5" x1="48.79" y1="58.48" x2="64.12" y2="56.5"/>
        <path class="cls-1" d="m42.6,57.31h.03c.12,0,.22.1.22.22s-.1.22-.22.22h-.03c-.12,0-.22-.1-.22-.22s.1-.22.22-.22Z"/>
        <path class="cls-1" d="m43.28,56.61h.03c.12,0,.22.1.22.22s-.1.22-.22.22h-.03c-.12,0-.22-.1-.22-.22s.1-.22.22-.22Z"/>
        <path class="cls-1" d="m43.98,55.93h.03c.12,0,.22.1.22.22s-.1.22-.22.22h-.03c-.12,0-.22-.1-.22-.22s.1-.22.22-.22Z"/>
        <path class="cls-1" d="m42.6,58.7h.03c.12,0,.22.1.22.22s-.1.22-.22.22h-.03c-.12,0-.22-.1-.22-.22s.1-.22.22-.22Z"/>
        <path class="cls-1" d="m43.28,57.99h.03c.12,0,.22.1.22.22s-.1.22-.22.22h-.03c-.12,0-.22-.1-.22-.22s.1-.22.22-.22Z"/>
        <path class="cls-1" d="m43.98,57.31h.03c.12,0,.22.1.22.22s-.1.22-.22.22h-.03c-.12,0-.22-.1-.22-.22s.1-.22.22-.22Z"/>
        <path class="cls-1" d="m44.66,56.61h.03c.12,0,.22.1.22.22s-.1.22-.22.22h-.03c-.12,0-.22-.1-.22-.22s.1-.22.22-.22Z"/>
        <path class="cls-1" d="m45.37,55.93h.03c.12,0,.22.1.22.22s-.1.22-.22.22h-.03c-.12,0-.22-.1-.22-.22s.1-.22.22-.22Z"/>
        <path class="cls-1" d="m42.6,60.09h.03c.12,0,.22.1.22.22s-.1.22-.22.22h-.03c-.12,0-.22-.1-.22-.22s.1-.22.22-.22Z"/>
        <path class="cls-1" d="m43.28,59.38h.03c.12,0,.22.1.22.22s-.1.22-.22.22h-.03c-.12,0-.22-.1-.22-.22s.1-.22.22-.22Z"/>
        <path class="cls-1" d="m43.98,58.7h.03c.12,0,.22.1.22.22s-.1.22-.22.22h-.03c-.12,0-.22-.1-.22-.22s.1-.22.22-.22Z"/>
        <path class="cls-1" d="m44.66,57.99h.03c.12,0,.22.1.22.22s-.1.22-.22.22h-.03c-.12,0-.22-.1-.22-.22s.1-.22.22-.22Z"/>
        <path class="cls-1" d="m45.37,57.31h.03c.12,0,.22.1.22.22s-.1.22-.22.22h-.03c-.12,0-.22-.1-.22-.22s.1-.22.22-.22Z"/>
        <path class="cls-1" d="m46.05,56.61h.03c.12,0,.22.1.22.22s-.1.22-.22.22h-.03c-.12,0-.22-.1-.22-.22s.1-.22.22-.22Z"/>
        <path class="cls-1" d="m46.75,55.93h.03c.12,0,.22.1.22.22s-.1.22-.22.22h-.03c-.12,0-.22-.1-.22-.22s.1-.22.22-.22Z"/>
        <path class="cls-1" d="m43.28,60.77h.03c.12,0,.22.1.22.22s-.1.22-.22.22h-.03c-.12,0-.22-.1-.22-.22s.1-.22.22-.22Z"/>
        <path class="cls-1" d="m43.98,60.09h.03c.12,0,.22.1.22.22s-.1.22-.22.22h-.03c-.12,0-.22-.1-.22-.22s.1-.22.22-.22Z"/>
        <path class="cls-1" d="m44.66,59.38h.03c.12,0,.22.1.22.22s-.1.22-.22.22h-.03c-.12,0-.22-.1-.22-.22s.1-.22.22-.22Z"/>
        <path class="cls-1" d="m45.37,58.7h.03c.12,0,.22.1.22.22s-.1.22-.22.22h-.03c-.12,0-.22-.1-.22-.22s.1-.22.22-.22Z"/>
        <path class="cls-1" d="m46.05,57.99h.03c.12,0,.22.1.22.22s-.1.22-.22.22h-.03c-.12,0-.22-.1-.22-.22s.1-.22.22-.22Z"/>
        <path class="cls-1" d="m46.75,57.31h.03c.12,0,.22.1.22.22s-.1.22-.22.22h-.03c-.12,0-.22-.1-.22-.22s.1-.22.22-.22Z"/>
        <path class="cls-1" d="m47.44,56.61h.03c.12,0,.22.1.22.22s-.1.22-.22.22h-.03c-.12,0-.22-.1-.22-.22s.1-.22.22-.22Z"/>
        <path class="cls-1" d="m43.98,61.48h.03c.12,0,.22.1.22.22s-.1.22-.22.22h-.03c-.12,0-.22-.1-.22-.22s.1-.22.22-.22Z"/>
        <path class="cls-1" d="m44.66,60.77h.03c.12,0,.22.1.22.22s-.1.22-.22.22h-.03c-.12,0-.22-.1-.22-.22s.1-.22.22-.22Z"/>
        <path class="cls-1" d="m45.37,60.09h.03c.12,0,.22.1.22.22s-.1.22-.22.22h-.03c-.12,0-.22-.1-.22-.22s.1-.22.22-.22Z"/>
        <path class="cls-1" d="m46.05,59.38h.03c.12,0,.22.1.22.22s-.1.22-.22.22h-.03c-.12,0-.22-.1-.22-.22s.1-.22.22-.22Z"/>
        <path class="cls-1" d="m46.75,58.7h.03c.12,0,.22.1.22.22s-.1.22-.22.22h-.03c-.12,0-.22-.1-.22-.22s.1-.22.22-.22Z"/>
        <path class="cls-1" d="m47.44,57.99h.03c.12,0,.22.1.22.22s-.1.22-.22.22h-.03c-.12,0-.22-.1-.22-.22s.1-.22.22-.22Z"/>
        <path class="cls-1" d="m48.14,57.31h.03c.12,0,.22.1.22.22s-.1.22-.22.22h-.03c-.12,0-.22-.1-.22-.22s.1-.22.22-.22Z"/>
        <path class="cls-1" d="m45.37,61.48h.03c.12,0,.22.1.22.22s-.1.22-.22.22h-.03c-.12,0-.22-.1-.22-.22s.1-.22.22-.22Z"/>
        <path class="cls-1" d="m46.05,60.77h.03c.12,0,.22.1.22.22s-.1.22-.22.22h-.03c-.12,0-.22-.1-.22-.22s.1-.22.22-.22Z"/>
        <path class="cls-1" d="m46.75,60.09h.03c.12,0,.22.1.22.22s-.1.22-.22.22h-.03c-.12,0-.22-.1-.22-.22s.1-.22.22-.22Z"/>
        <path class="cls-1" d="m47.44,59.38h.03c.12,0,.22.1.22.22s-.1.22-.22.22h-.03c-.12,0-.22-.1-.22-.22s.1-.22.22-.22Z"/>
        <path class="cls-1" d="m48.14,58.7h.03c.12,0,.22.1.22.22s-.1.22-.22.22h-.03c-.12,0-.22-.1-.22-.22s.1-.22.22-.22Z"/>
        <path class="cls-1" d="m46.75,61.48h.03c.12,0,.22.1.22.22s-.1.22-.22.22h-.03c-.12,0-.22-.1-.22-.22s.1-.22.22-.22Z"/>
        <path class="cls-1" d="m47.44,60.77h.03c.12,0,.22.1.22.22s-.1.22-.22.22h-.03c-.12,0-.22-.1-.22-.22s.1-.22.22-.22Z"/>
        <path class="cls-1" d="m48.14,60.09h.03c.12,0,.22.1.22.22s-.1.22-.22.22h-.03c-.12,0-.22-.1-.22-.22s.1-.22.22-.22Z"/>
        <polyline class="cls-5" points="45.37 62.38 44.16 62.17 43.13 61.58 42.36 60.63 41.95 59.51 41.95 58.3 42.36 57.18 43.13 56.24 44.16 55.65 45.37 55.44 46.55 55.65 47.58 56.24 48.35 57.18 48.76 58.3 48.76 58.42"/>
        <polyline class="cls-5" points="48.76 58.48 48.76 59.51 48.35 60.63 47.58 61.58 46.55 62.17 45.37 62.38"/>
        <line class="cls-5" x1="115.43" y1="52.84" x2="102.75" y2="60.13"/>
        <line class="cls-5" x1="102.69" y1="59.96" x2="115.61" y2="52.64"/>
        <line class="cls-5" x1="115.64" y1="52.49" x2="102.66" y2="59.81"/>
        <line class="cls-5" x1="102.61" y1="59.63" x2="115.64" y2="52.34"/>
        <line class="cls-5" x1="115.64" y1="52.23" x2="102.54" y2="59.48"/>
        <line class="cls-5" x1="102.49" y1="59.33" x2="115.61" y2="52.14"/>
        <line class="cls-5" x1="115.58" y1="52.02" x2="102.43" y2="59.19"/>
        <line class="cls-5" x1="102.34" y1="59.07" x2="115.52" y2="51.93"/>
        <line class="cls-5" x1="115.46" y1="51.84" x2="102.25" y2="58.92"/>
        <line class="cls-5" x1="102.19" y1="58.81" x2="115.37" y2="51.78"/>
        <line class="cls-5" x1="115.28" y1="51.69" x2="102.07" y2="58.66"/>
        <line class="cls-5" x1="101.98" y1="58.54" x2="115.19" y2="51.63"/>
        <line class="cls-5" x1="115.05" y1="51.58" x2="101.87" y2="58.42"/>
        <polyline class="cls-5" points="101.75 58.3 114.75 51.6 115.05 51.58 115.19 51.63 115.28 51.69 115.37 51.78 115.46 51.84 115.52 51.93 115.58 52.02 115.61 52.14 115.64 52.23 115.64 52.34 115.64 52.49 115.61 52.64 115.43 52.84"/>
        <line class="cls-5" x1="116.88" y1="46.79" x2="118.02" y2="20.09"/>
        <line class="cls-5" x1="118.2" y1="20.15" x2="116.99" y2="46.91"/>
        <line class="cls-5" x1="117.14" y1="46.94" x2="118.35" y2="20.18"/>
        <line class="cls-5" x1="118.5" y1="20.21" x2="117.26" y2="47"/>
        <line class="cls-5" x1="117.41" y1="47" x2="118.65" y2="20.24"/>
        <line class="cls-5" x1="118.79" y1="20.27" x2="117.53" y2="47.03"/>
        <line class="cls-5" x1="117.67" y1="47.03" x2="118.97" y2="20.27"/>
        <line class="cls-5" x1="119.12" y1="20.27" x2="117.79" y2="47.03"/>
        <line class="cls-5" x1="117.91" y1="47.03" x2="119.27" y2="20.27"/>
        <line class="cls-5" x1="119.44" y1="20.27" x2="118.06" y2="47.03"/>
        <line class="cls-5" x1="118.2" y1="47" x2="119.59" y2="20.24"/>
        <line class="cls-5" x1="119.74" y1="20.21" x2="118.32" y2="46.97"/>
        <line class="cls-5" x1="118.47" y1="46.85" x2="119.91" y2="20.18"/>
        <polyline class="cls-5" points="118.47 46.85 118.32 46.97 118.2 47 118.06 47.03 117.91 47.03 117.79 47.03 117.67 47.03 117.53 47.03 117.41 47 117.26 47 117.14 46.94 116.99 46.91 116.88 46.79"/>
        <line class="cls-5" x1="121.71" y1="50.51" x2="150.2" y2="52.9"/>
        <line class="cls-5" x1="150.14" y1="53.08" x2="121.59" y2="50.66"/>
        <line class="cls-5" x1="121.53" y1="50.78" x2="150.08" y2="53.23"/>
        <line class="cls-5" x1="150.05" y1="53.4" x2="121.51" y2="50.93"/>
        <line class="cls-5" x1="121.48" y1="51.07" x2="150.02" y2="53.58"/>
        <line class="cls-5" x1="149.99" y1="53.73" x2="121.44" y2="51.22"/>
        <line class="cls-5" x1="121.44" y1="51.37" x2="149.99" y2="53.91"/>
        <line class="cls-5" x1="149.96" y1="54.09" x2="121.44" y2="51.52"/>
        <line class="cls-5" x1="121.44" y1="51.67" x2="149.96" y2="54.23"/>
        <line class="cls-5" x1="149.99" y1="54.41" x2="121.44" y2="51.81"/>
        <line class="cls-5" x1="121.48" y1="51.96" x2="149.99" y2="54.58"/>
        <polyline class="cls-5" points="150.02 54.76 121.57 52.11 121.48 51.96 121.44 51.81 121.44 51.67 121.44 51.52 121.44 51.37 121.44 51.22 121.48 51.07 121.51 50.93 121.53 50.78 121.59 50.66 121.71 50.51"/>
        <line class="cls-5" x1="113.42" y1="49.42" x2="115.96" y2="46.88"/>
        <line class="cls-5" x1="117.17" y1="47.06" x2="113.16" y2="51.1"/>
        <line class="cls-5" x1="113.96" y1="51.69" x2="118.79" y2="46.83"/>
        <line class="cls-5" x1="119.74" y1="47.27" x2="115.46" y2="51.55"/>
        <line class="cls-5" x1="114.93" y1="53.46" x2="120.5" y2="47.89"/>
        <line class="cls-5" x1="121.12" y1="48.65" x2="115.19" y2="54.61"/>
        <line class="cls-5" x1="116.14" y1="55.06" x2="121.57" y2="49.6"/>
        <line class="cls-5" x1="121.15" y1="51.4" x2="117.32" y2="55.26"/>
        <line class="cls-5" x1="118.97" y1="55" x2="121.51" y2="52.43"/>
        <line class="cls-5" x1="115.96" y1="55" x2="114.72" y2="53.76"/>
        <line class="cls-5" x1="113.16" y1="50.78" x2="114.05" y2="51.67"/>
        <line class="cls-5" x1="115.34" y1="52.96" x2="117.61" y2="55.26"/>
        <line class="cls-5" x1="118.79" y1="55.06" x2="115.93" y2="52.19"/>
        <line class="cls-5" x1="115.31" y1="51.58" x2="113.37" y2="49.6"/>
        <line class="cls-5" x1="113.81" y1="48.65" x2="119.74" y2="54.61"/>
        <line class="cls-5" x1="120.5" y1="54" x2="114.43" y2="47.89"/>
        <line class="cls-5" x1="115.19" y1="47.27" x2="121.12" y2="53.23"/>
        <line class="cls-5" x1="121.57" y1="52.28" x2="116.14" y2="46.83"/>
        <line class="cls-5" x1="117.94" y1="47.27" x2="121.48" y2="50.78"/>
        <line class="cls-5" x1="121.51" y1="49.42" x2="118.97" y2="46.88"/>
        <polyline class="cls-5" points="117.46 55.26 116.14 55.06 114.93 54.44 114.52 54.02"/>
        <polyline class="cls-5" points="113.28 51.75 113.16 50.96 113.37 49.6 113.98 48.39 114.93 47.44 116.14 46.83 116.82 46.74"/>
        <polyline class="cls-5" points="118.56 46.79 118.79 46.83 120 47.44 120.95 48.39 121.57 49.6 121.71 50.51"/>
        <polyline class="cls-5" points="121.59 52.17 121.57 52.28 120.95 53.46 120 54.44 118.79 55.06 117.46 55.26"/>
        <line class="cls-5" x1="190.65" y1="42.37" x2="197.61" y2="45.62"/>
        <path class="cls-1" d="m186.05,39.94h.03c.12,0,.22.1.22.22s-.1.22-.22.22h-.03c-.12,0-.22-.1-.22-.22s.1-.22.22-.22Z"/>
        <path class="cls-1" d="m186.76,39.22h.03c.12,0,.22.1.22.22s-.1.22-.22.22h-.03c-.12,0-.22-.1-.22-.22s.1-.22.22-.22Z"/>
        <path class="cls-1" d="m187.44,38.55h.03c.12,0,.22.1.22.22s-.1.22-.22.22h-.03c-.12,0-.22-.1-.22-.22s.1-.22.22-.22Z"/>
        <path class="cls-1" d="m186.05,41.32h.03c.12,0,.22.1.22.22s-.1.22-.22.22h-.03c-.12,0-.22-.1-.22-.22s.1-.22.22-.22Z"/>
        <path class="cls-1" d="m186.76,40.61h.03c.12,0,.22.1.22.22s-.1.22-.22.22h-.03c-.12,0-.22-.1-.22-.22s.1-.22.22-.22Z"/>
        <path class="cls-1" d="m187.44,39.94h.03c.12,0,.22.1.22.22s-.1.22-.22.22h-.03c-.12,0-.22-.1-.22-.22s.1-.22.22-.22Z"/>
        <path class="cls-1" d="m188.15,39.22h.03c.12,0,.22.1.22.22s-.1.22-.22.22h-.03c-.12,0-.22-.1-.22-.22s.1-.22.22-.22Z"/>
        <path class="cls-1" d="m188.82,38.55h.03c.12,0,.22.1.22.22s-.1.22-.22.22h-.03c-.12,0-.22-.1-.22-.22s.1-.22.22-.22Z"/>
        <path class="cls-1" d="m186.05,42.71h.03c.12,0,.22.1.22.22s-.1.22-.22.22h-.03c-.12,0-.22-.1-.22-.22s.1-.22.22-.22Z"/>
        <path class="cls-1" d="m186.76,42h.03c.12,0,.22.1.22.22s-.1.22-.22.22h-.03c-.12,0-.22-.1-.22-.22s.1-.22.22-.22Z"/>
        <path class="cls-1" d="m187.44,41.32h.03c.12,0,.22.1.22.22s-.1.22-.22.22h-.03c-.12,0-.22-.1-.22-.22s.1-.22.22-.22Z"/>
        <path class="cls-1" d="m188.15,40.61h.03c.12,0,.22.1.22.22s-.1.22-.22.22h-.03c-.12,0-.22-.1-.22-.22s.1-.22.22-.22Z"/>
        <path class="cls-1" d="m188.82,39.94h.03c.12,0,.22.1.22.22s-.1.22-.22.22h-.03c-.12,0-.22-.1-.22-.22s.1-.22.22-.22Z"/>
        <path class="cls-1" d="m189.53,39.22h.03c.12,0,.22.1.22.22s-.1.22-.22.22h-.03c-.12,0-.22-.1-.22-.22s.1-.22.22-.22Z"/>
        <path class="cls-1" d="m190.21,38.55h.03c.12,0,.22.1.22.22s-.1.22-.22.22h-.03c-.12,0-.22-.1-.22-.22s.1-.22.22-.22Z"/>
        <path class="cls-1" d="m186.76,43.39h.03c.12,0,.22.1.22.22s-.1.22-.22.22h-.03c-.12,0-.22-.1-.22-.22s.1-.22.22-.22Z"/>
        <path class="cls-1" d="m187.44,42.71h.03c.12,0,.22.1.22.22s-.1.22-.22.22h-.03c-.12,0-.22-.1-.22-.22s.1-.22.22-.22Z"/>
        <path class="cls-1" d="m188.15,42h.03c.12,0,.22.1.22.22s-.1.22-.22.22h-.03c-.12,0-.22-.1-.22-.22s.1-.22.22-.22Z"/>
        <path class="cls-1" d="m188.82,41.32h.03c.12,0,.22.1.22.22s-.1.22-.22.22h-.03c-.12,0-.22-.1-.22-.22s.1-.22.22-.22Z"/>
        <path class="cls-1" d="m189.53,40.61h.03c.12,0,.22.1.22.22s-.1.22-.22.22h-.03c-.12,0-.22-.1-.22-.22s.1-.22.22-.22Z"/>
        <path class="cls-1" d="m190.21,39.94h.03c.12,0,.22.1.22.22s-.1.22-.22.22h-.03c-.12,0-.22-.1-.22-.22s.1-.22.22-.22Z"/>
        <path class="cls-1" d="m190.92,39.22h.03c.12,0,.22.1.22.22s-.1.22-.22.22h-.03c-.12,0-.22-.1-.22-.22s.1-.22.22-.22Z"/>
        <path class="cls-1" d="m187.44,44.1h.03c.12,0,.22.1.22.22s-.1.22-.22.22h-.03c-.12,0-.22-.1-.22-.22s.1-.22.22-.22Z"/>
        <path class="cls-1" d="m188.15,43.39h.03c.12,0,.22.1.22.22s-.1.22-.22.22h-.03c-.12,0-.22-.1-.22-.22s.1-.22.22-.22Z"/>
        <path class="cls-1" d="m188.82,42.71h.03c.12,0,.22.1.22.22s-.1.22-.22.22h-.03c-.12,0-.22-.1-.22-.22s.1-.22.22-.22Z"/>
        <path class="cls-1" d="m189.53,42h.03c.12,0,.22.1.22.22s-.1.22-.22.22h-.03c-.12,0-.22-.1-.22-.22s.1-.22.22-.22Z"/>
        <path class="cls-1" d="m190.21,41.32h.03c.12,0,.22.1.22.22s-.1.22-.22.22h-.03c-.12,0-.22-.1-.22-.22s.1-.22.22-.22Z"/>
        <path class="cls-1" d="m190.92,40.61h.03c.12,0,.22.1.22.22s-.1.22-.22.22h-.03c-.12,0-.22-.1-.22-.22s.1-.22.22-.22Z"/>
        <path class="cls-1" d="m191.6,39.94h.03c.12,0,.22.1.22.22s-.1.22-.22.22h-.03c-.12,0-.22-.1-.22-.22s.1-.22.22-.22Z"/>
        <path class="cls-1" d="m188.82,44.1h.03c.12,0,.22.1.22.22s-.1.22-.22.22h-.03c-.12,0-.22-.1-.22-.22s.1-.22.22-.22Z"/>
        <path class="cls-1" d="m189.53,43.39h.03c.12,0,.22.1.22.22s-.1.22-.22.22h-.03c-.12,0-.22-.1-.22-.22s.1-.22.22-.22Z"/>
        <path class="cls-1" d="m190.21,42.71h.03c.12,0,.22.1.22.22s-.1.22-.22.22h-.03c-.12,0-.22-.1-.22-.22s.1-.22.22-.22Z"/>
        <path class="cls-1" d="m190.92,42h.03c.12,0,.22.1.22.22s-.1.22-.22.22h-.03c-.12,0-.22-.1-.22-.22s.1-.22.22-.22Z"/>
        <path class="cls-1" d="m191.6,41.32h.03c.12,0,.22.1.22.22s-.1.22-.22.22h-.03c-.12,0-.22-.1-.22-.22s.1-.22.22-.22Z"/>
        <path class="cls-1" d="m190.21,44.1h.03c.12,0,.22.1.22.22s-.1.22-.22.22h-.03c-.12,0-.22-.1-.22-.22s.1-.22.22-.22Z"/>
        <path class="cls-1" d="m190.92,43.39h.03c.12,0,.22.1.22.22s-.1.22-.22.22h-.03c-.12,0-.22-.1-.22-.22s.1-.22.22-.22Z"/>
        <polyline class="cls-5" points="188.82 44.97 187.64 44.76 186.61 44.17 185.85 43.25 185.46 42.13 185.46 40.95 185.85 39.83 186.61 38.91 187.64 38.3 188.82 38.12 190 38.3 191.04 38.91 191.8 39.83 192.22 40.95 192.22 42.13 192.13 42.37"/>
        <polyline class="cls-5" points="191.6 43.49 191.04 44.17 190 44.76 188.82 44.97"/>
        <line class="cls-5" x1="164.41" y1="46.5" x2="156.36" y2="52.14"/>
        <line class="cls-5" x1="169.92" y1="44.49" x2="185.43" y2="42.07"/>
        <line class="cls-5" x1="163.85" y1="43.55" x2="163.23" y2="44.17"/>
        <line class="cls-5" x1="163.14" y1="44.97" x2="163.97" y2="44.14"/>
        <line class="cls-5" x1="164.17" y1="44.64" x2="163.17" y2="45.62"/>
        <line class="cls-5" x1="163.32" y1="46.18" x2="164.41" y2="45.08"/>
        <line class="cls-5" x1="164.7" y1="45.5" x2="163.64" y2="46.53"/>
        <line class="cls-5" x1="164.44" y1="46.44" x2="165" y2="45.88"/>
        <line class="cls-5" x1="165.35" y1="46.23" x2="164.14" y2="47.44"/>
        <line class="cls-5" x1="164.5" y1="47.77" x2="165.71" y2="46.56"/>
        <line class="cls-5" x1="166.09" y1="46.88" x2="164.94" y2="48.04"/>
        <line class="cls-5" x1="165.41" y1="48.24" x2="166.5" y2="47.15"/>
        <line class="cls-5" x1="166.94" y1="47.42" x2="165.94" y2="48.39"/>
        <line class="cls-5" x1="166.59" y1="48.45" x2="167.45" y2="47.59"/>
        <line class="cls-5" x1="168.01" y1="47.71" x2="167.42" y2="48.33"/>
        <polyline class="cls-5" points="166.56 48.45 165.38 48.24 164.35 47.65 164.08 47.3"/>
        <polyline class="cls-5" points="163.52 46.56 163.17 45.62 163.17 44.44 163.58 43.31 164.35 42.4 165.38 41.81 166.56 41.6 167.71 41.81 168.74 42.4 169.51 43.31 169.89 44.4"/>
        <polyline class="cls-5" points="169.92 44.55 169.92 45.62 169.51 46.74 168.74 47.65 167.71 48.24 166.56 48.45"/>
        <polyline class="cls-5" points="6.98 63.35 6.12 63.14 5.44 62.67 5.03 61.93 4.94 61.08 5.21 60.28 5.77 59.63 6.54 59.28 7.39 59.28 8.19 59.63 8.75 60.28 9.01 61.08 8.92 61.93 8.48 62.67 7.8 63.14 6.98 63.35"/>
        <polyline class="cls-5" points="125.87 96.34 125.04 96.16 124.37 95.69 123.95 94.95 123.87 94.1 124.13 93.3 124.69 92.68 125.46 92.33 126.31 92.33 127.08 92.68 127.64 93.3 127.9 94.1 127.82 94.95 127.4 95.69 126.69 96.16 125.87 96.34"/>
        <line class="cls-5" x1="80.87" y1="49.07" x2="70.64" y2="54.47"/>
        <line class="cls-5" x1="86.53" y1="47.35" x2="113.37" y2="49.66"/>
        <line class="cls-5" x1="113.31" y1="49.81" x2="86.42" y2="47.47"/>
        <line class="cls-5" x1="86.36" y1="47.62" x2="113.28" y2="49.98"/>
        <line class="cls-5" x1="113.22" y1="50.13" x2="86.33" y2="47.74"/>
        <line class="cls-5" x1="86.3" y1="47.89" x2="113.22" y2="50.31"/>
        <line class="cls-5" x1="113.19" y1="50.46" x2="86.27" y2="48.04"/>
        <line class="cls-5" x1="86.27" y1="48.18" x2="113.16" y2="50.63"/>
        <line class="cls-5" x1="113.16" y1="50.81" x2="86.27" y2="48.33"/>
        <line class="cls-5" x1="86.27" y1="48.48" x2="113.16" y2="50.96"/>
        <line class="cls-5" x1="113.16" y1="51.13" x2="86.27" y2="48.62"/>
        <line class="cls-5" x1="86.3" y1="48.74" x2="113.16" y2="51.31"/>
        <polyline class="cls-5" points="113.19 51.46 86.39 48.92 86.3 48.74 86.27 48.62 86.27 48.48 86.27 48.33 86.27 48.18 86.27 48.04 86.3 47.89 86.33 47.74 86.36 47.62 86.42 47.47 86.53 47.35"/>
        <path class="cls-1" d="m80.46,46.22h.03c.12,0,.22.1.22.22s-.1.22-.22.22h-.03c-.12,0-.22-.1-.22-.22s.1-.22.22-.22Z"/>
        <path class="cls-1" d="m81.14,45.54h.03c.12,0,.22.1.22.22s-.1.22-.22.22h-.03c-.12,0-.22-.1-.22-.22s.1-.22.22-.22Z"/>
        <path class="cls-1" d="m81.84,44.83h.03c.12,0,.22.1.22.22s-.1.22-.22.22h-.03c-.12,0-.22-.1-.22-.22s.1-.22.22-.22Z"/>
        <path class="cls-1" d="m80.46,47.61h.03c.12,0,.22.1.22.22s-.1.22-.22.22h-.03c-.12,0-.22-.1-.22-.22s.1-.22.22-.22Z"/>
        <path class="cls-1" d="m81.14,46.93h.03c.12,0,.22.1.22.22s-.1.22-.22.22h-.03c-.12,0-.22-.1-.22-.22s.1-.22.22-.22Z"/>
        <path class="cls-1" d="m81.84,46.22h.03c.12,0,.22.1.22.22s-.1.22-.22.22h-.03c-.12,0-.22-.1-.22-.22s.1-.22.22-.22Z"/>
        <path class="cls-1" d="m82.52,45.54h.03c.12,0,.22.1.22.22s-.1.22-.22.22h-.03c-.12,0-.22-.1-.22-.22s.1-.22.22-.22Z"/>
        <path class="cls-1" d="m83.23,44.83h.03c.12,0,.22.1.22.22s-.1.22-.22.22h-.03c-.12,0-.22-.1-.22-.22s.1-.22.22-.22Z"/>
        <path class="cls-1" d="m81.14,48.31h.03c.12,0,.22.1.22.22s-.1.22-.22.22h-.03c-.12,0-.22-.1-.22-.22s.1-.22.22-.22Z"/>
        <path class="cls-1" d="m81.84,47.61h.03c.12,0,.22.1.22.22s-.1.22-.22.22h-.03c-.12,0-.22-.1-.22-.22s.1-.22.22-.22Z"/>
        <path class="cls-1" d="m82.52,46.93h.03c.12,0,.22.1.22.22s-.1.22-.22.22h-.03c-.12,0-.22-.1-.22-.22s.1-.22.22-.22Z"/>
        <path class="cls-1" d="m83.23,46.22h.03c.12,0,.22.1.22.22s-.1.22-.22.22h-.03c-.12,0-.22-.1-.22-.22s.1-.22.22-.22Z"/>
        <path class="cls-1" d="m83.91,45.54h.03c.12,0,.22.1.22.22s-.1.22-.22.22h-.03c-.12,0-.22-.1-.22-.22s.1-.22.22-.22Z"/>
        <path class="cls-1" d="m84.62,44.83h.03c.12,0,.22.1.22.22s-.1.22-.22.22h-.03c-.12,0-.22-.1-.22-.22s.1-.22.22-.22Z"/>
        <path class="cls-1" d="m81.14,49.7h.03c.12,0,.22.1.22.22s-.1.22-.22.22h-.03c-.12,0-.22-.1-.22-.22s.1-.22.22-.22Z"/>
        <path class="cls-1" d="m81.84,48.99h.03c.12,0,.22.1.22.22s-.1.22-.22.22h-.03c-.12,0-.22-.1-.22-.22s.1-.22.22-.22Z"/>
        <path class="cls-1" d="m82.52,48.31h.03c.12,0,.22.1.22.22s-.1.22-.22.22h-.03c-.12,0-.22-.1-.22-.22s.1-.22.22-.22Z"/>
        <path class="cls-1" d="m83.23,47.61h.03c.12,0,.22.1.22.22s-.1.22-.22.22h-.03c-.12,0-.22-.1-.22-.22s.1-.22.22-.22Z"/>
        <path class="cls-1" d="m83.91,46.93h.03c.12,0,.22.1.22.22s-.1.22-.22.22h-.03c-.12,0-.22-.1-.22-.22s.1-.22.22-.22Z"/>
        <path class="cls-1" d="m84.62,46.22h.03c.12,0,.22.1.22.22s-.1.22-.22.22h-.03c-.12,0-.22-.1-.22-.22s.1-.22.22-.22Z"/>
        <path class="cls-1" d="m85.3,45.54h.03c.12,0,.22.1.22.22s-.1.22-.22.22h-.03c-.12,0-.22-.1-.22-.22s.1-.22.22-.22Z"/>
        <path class="cls-1" d="m81.84,50.38h.03c.12,0,.22.1.22.22s-.1.22-.22.22h-.03c-.12,0-.22-.1-.22-.22s.1-.22.22-.22Z"/>
        <path class="cls-1" d="m82.52,49.7h.03c.12,0,.22.1.22.22s-.1.22-.22.22h-.03c-.12,0-.22-.1-.22-.22s.1-.22.22-.22Z"/>
        <path class="cls-1" d="m83.23,48.99h.03c.12,0,.22.1.22.22s-.1.22-.22.22h-.03c-.12,0-.22-.1-.22-.22s.1-.22.22-.22Z"/>
        <path class="cls-1" d="m83.91,48.31h.03c.12,0,.22.1.22.22s-.1.22-.22.22h-.03c-.12,0-.22-.1-.22-.22s.1-.22.22-.22Z"/>
        <path class="cls-1" d="m84.62,47.61h.03c.12,0,.22.1.22.22s-.1.22-.22.22h-.03c-.12,0-.22-.1-.22-.22s.1-.22.22-.22Z"/>
        <path class="cls-1" d="m85.3,46.93h.03c.12,0,.22.1.22.22s-.1.22-.22.22h-.03c-.12,0-.22-.1-.22-.22s.1-.22.22-.22Z"/>
        <path class="cls-1" d="m86,46.22h.03c.12,0,.22.1.22.22s-.1.22-.22.22h-.03c-.12,0-.22-.1-.22-.22s.1-.22.22-.22Z"/>
        <path class="cls-1" d="m83.23,50.38h.03c.12,0,.22.1.22.22s-.1.22-.22.22h-.03c-.12,0-.22-.1-.22-.22s.1-.22.22-.22Z"/>
        <path class="cls-1" d="m83.91,49.7h.03c.12,0,.22.1.22.22s-.1.22-.22.22h-.03c-.12,0-.22-.1-.22-.22s.1-.22.22-.22Z"/>
        <path class="cls-1" d="m84.62,48.99h.03c.12,0,.22.1.22.22s-.1.22-.22.22h-.03c-.12,0-.22-.1-.22-.22s.1-.22.22-.22Z"/>
        <path class="cls-1" d="m85.3,48.31h.03c.12,0,.22.1.22.22s-.1.22-.22.22h-.03c-.12,0-.22-.1-.22-.22s.1-.22.22-.22Z"/>
        <path class="cls-1" d="m86,47.61h.03c.12,0,.22.1.22.22s-.1.22-.22.22h-.03c-.12,0-.22-.1-.22-.22s.1-.22.22-.22Z"/>
        <path class="cls-1" d="m84.62,50.38h.03c.12,0,.22.1.22.22s-.1.22-.22.22h-.03c-.12,0-.22-.1-.22-.22s.1-.22.22-.22Z"/>
        <path class="cls-1" d="m85.3,49.7h.03c.12,0,.22.1.22.22s-.1.22-.22.22h-.03c-.12,0-.22-.1-.22-.22s.1-.22.22-.22Z"/>
        <path class="cls-1" d="m86,48.99h.03c.12,0,.22.1.22.22s-.1.22-.22.22h-.03c-.12,0-.22-.1-.22-.22s.1-.22.22-.22Z"/>
        <polyline class="cls-5" points="83.23 51.22 82.08 51.02 81.05 50.42 80.49 49.75"/>
        <polyline class="cls-5" points="80.11 48.98 79.9 48.42 79.9 47.24 80.28 46.14 81.05 45.23 82.08 44.64 83.23 44.44 84.38 44.64 85.41 45.23 86.15 46.14 86.56 47.24 86.56 47.33"/>
        <polyline class="cls-5" points="86.39 48.89 86.15 49.51 85.41 50.42 84.38 51.02 83.23 51.22"/>
        <line class="cls-5" x1="115.99" y1="80.17" x2="116.46" y2="55.15"/>
        <line class="cls-5" x1="116.61" y1="55.18" x2="116.14" y2="80.29"/>
        <line class="cls-5" x1="116.26" y1="80.35" x2="116.79" y2="55.21"/>
        <line class="cls-5" x1="116.97" y1="55.21" x2="116.4" y2="80.38"/>
        <line class="cls-5" x1="116.55" y1="80.41" x2="117.11" y2="55.23"/>
        <line class="cls-5" x1="117.29" y1="55.26" x2="116.7" y2="80.41"/>
        <line class="cls-5" x1="116.85" y1="80.41" x2="117.44" y2="55.26"/>
        <line class="cls-5" x1="117.61" y1="55.26" x2="116.97" y2="80.41"/>
        <line class="cls-5" x1="117.11" y1="80.41" x2="117.76" y2="55.23"/>
        <line class="cls-5" x1="117.94" y1="55.23" x2="117.26" y2="80.38"/>
        <line class="cls-5" x1="117.41" y1="80.35" x2="118.11" y2="55.21"/>
        <polyline class="cls-5" points="118.29 55.18 117.55 80.23 117.41 80.35 117.26 80.38 117.11 80.41 116.97 80.41 116.85 80.41 116.7 80.41 116.55 80.41 116.4 80.38 116.26 80.35 116.14 80.29 115.99 80.17"/>
        <line class="cls-5" x1="118.88" y1="86.01" x2="124.57" y2="92.77"/>
        <line class="cls-5" x1="113.42" y1="82.53" x2="115.79" y2="80.17"/>
        <line class="cls-5" x1="116.61" y1="80.73" x2="113.37" y2="84.01"/>
        <line class="cls-5" x1="113.72" y1="85.04" x2="118.29" y2="80.47"/>
        <line class="cls-5" x1="119.09" y1="81.06" x2="114.31" y2="85.84"/>
        <line class="cls-5" x1="115.11" y1="86.43" x2="119.68" y2="81.85"/>
        <line class="cls-5" x1="120.03" y1="82.88" x2="116.14" y2="86.78"/>
        <line class="cls-5" x1="117.58" y1="86.69" x2="119.97" y2="84.33"/>
        <polyline class="cls-5" points="116.7 86.81 115.52 86.63 114.52 86.04 113.75 85.13 113.37 84.04 113.37 82.86 113.75 81.73 114.52 80.85 115.52 80.26 115.99 80.17"/>
        <polyline class="cls-5" points="117.55 80.2 117.85 80.26 118.88 80.85 119.62 81.73 120.03 82.86 120.03 84.04 119.62 85.13 118.91 85.98"/>
        <polyline class="cls-5" points="118.82 86.07 117.85 86.63 116.7 86.81"/>
        <line class="cls-5" x1="40.3" y1="53.52" x2="42.98" y2="56.39"/>
        <path class="cls-1" d="m36.52,50.85h.03c.12,0,.22.1.22.22s-.1.22-.22.22h-.03c-.12,0-.22-.1-.22-.22s.1-.22.22-.22Z"/>
        <path class="cls-1" d="m37.23,50.17h.03c.12,0,.22.1.22.22s-.1.22-.22.22h-.03c-.12,0-.22-.1-.22-.22s.1-.22.22-.22Z"/>
        <path class="cls-1" d="m37.91,49.47h.03c.12,0,.22.1.22.22s-.1.22-.22.22h-.03c-.12,0-.22-.1-.22-.22s.1-.22.22-.22Z"/>
        <path class="cls-1" d="m36.52,52.24h.03c.12,0,.22.1.22.22s-.1.22-.22.22h-.03c-.12,0-.22-.1-.22-.22s.1-.22.22-.22Z"/>
        <path class="cls-1" d="m37.23,51.56h.03c.12,0,.22.1.22.22s-.1.22-.22.22h-.03c-.12,0-.22-.1-.22-.22s.1-.22.22-.22Z"/>
        <path class="cls-1" d="m37.91,50.85h.03c.12,0,.22.1.22.22s-.1.22-.22.22h-.03c-.12,0-.22-.1-.22-.22s.1-.22.22-.22Z"/>
        <path class="cls-1" d="m38.62,50.17h.03c.12,0,.22.1.22.22s-.1.22-.22.22h-.03c-.12,0-.22-.1-.22-.22s.1-.22.22-.22Z"/>
        <path class="cls-1" d="m39.29,49.47h.03c.12,0,.22.1.22.22s-.1.22-.22.22h-.03c-.12,0-.22-.1-.22-.22s.1-.22.22-.22Z"/>
        <path class="cls-1" d="m36.52,53.62h.03c.12,0,.22.1.22.22s-.1.22-.22.22h-.03c-.12,0-.22-.1-.22-.22s.1-.22.22-.22Z"/>
        <path class="cls-1" d="m37.23,52.95h.03c.12,0,.22.1.22.22s-.1.22-.22.22h-.03c-.12,0-.22-.1-.22-.22s.1-.22.22-.22Z"/>
        <path class="cls-1" d="m37.91,52.24h.03c.12,0,.22.1.22.22s-.1.22-.22.22h-.03c-.12,0-.22-.1-.22-.22s.1-.22.22-.22Z"/>
        <path class="cls-1" d="m38.62,51.56h.03c.12,0,.22.1.22.22s-.1.22-.22.22h-.03c-.12,0-.22-.1-.22-.22s.1-.22.22-.22Z"/>
        <path class="cls-1" d="m39.29,50.85h.03c.12,0,.22.1.22.22s-.1.22-.22.22h-.03c-.12,0-.22-.1-.22-.22s.1-.22.22-.22Z"/>
        <path class="cls-1" d="m40,50.17h.03c.12,0,.22.1.22.22s-.1.22-.22.22h-.03c-.12,0-.22-.1-.22-.22s.1-.22.22-.22Z"/>
        <path class="cls-1" d="m40.68,49.47h.03c.12,0,.22.1.22.22s-.1.22-.22.22h-.03c-.12,0-.22-.1-.22-.22s.1-.22.22-.22Z"/>
        <path class="cls-1" d="m37.23,54.34h.03c.12,0,.22.1.22.22s-.1.22-.22.22h-.03c-.12,0-.22-.1-.22-.22s.1-.22.22-.22Z"/>
        <path class="cls-1" d="m37.91,53.62h.03c.12,0,.22.1.22.22s-.1.22-.22.22h-.03c-.12,0-.22-.1-.22-.22s.1-.22.22-.22Z"/>
        <path class="cls-1" d="m38.62,52.95h.03c.12,0,.22.1.22.22s-.1.22-.22.22h-.03c-.12,0-.22-.1-.22-.22s.1-.22.22-.22Z"/>
        <path class="cls-1" d="m39.29,52.24h.03c.12,0,.22.1.22.22s-.1.22-.22.22h-.03c-.12,0-.22-.1-.22-.22s.1-.22.22-.22Z"/>
        <path class="cls-1" d="m40,51.56h.03c.12,0,.22.1.22.22s-.1.22-.22.22h-.03c-.12,0-.22-.1-.22-.22s.1-.22.22-.22Z"/>
        <path class="cls-1" d="m40.68,50.85h.03c.12,0,.22.1.22.22s-.1.22-.22.22h-.03c-.12,0-.22-.1-.22-.22s.1-.22.22-.22Z"/>
        <path class="cls-1" d="m41.39,50.17h.03c.12,0,.22.1.22.22s-.1.22-.22.22h-.03c-.12,0-.22-.1-.22-.22s.1-.22.22-.22Z"/>
        <path class="cls-1" d="m37.91,55.01h.03c.12,0,.22.1.22.22s-.1.22-.22.22h-.03c-.12,0-.22-.1-.22-.22s.1-.22.22-.22Z"/>
        <path class="cls-1" d="m38.62,54.34h.03c.12,0,.22.1.22.22s-.1.22-.22.22h-.03c-.12,0-.22-.1-.22-.22s.1-.22.22-.22Z"/>
        <path class="cls-1" d="m39.29,53.62h.03c.12,0,.22.1.22.22s-.1.22-.22.22h-.03c-.12,0-.22-.1-.22-.22s.1-.22.22-.22Z"/>
        <path class="cls-1" d="m40,52.95h.03c.12,0,.22.1.22.22s-.1.22-.22.22h-.03c-.12,0-.22-.1-.22-.22s.1-.22.22-.22Z"/>
        <path class="cls-1" d="m40.68,52.24h.03c.12,0,.22.1.22.22s-.1.22-.22.22h-.03c-.12,0-.22-.1-.22-.22s.1-.22.22-.22Z"/>
        <path class="cls-1" d="m41.39,51.56h.03c.12,0,.22.1.22.22s-.1.22-.22.22h-.03c-.12,0-.22-.1-.22-.22s.1-.22.22-.22Z"/>
        <path class="cls-1" d="m42.07,50.85h.03c.12,0,.22.1.22.22s-.1.22-.22.22h-.03c-.12,0-.22-.1-.22-.22s.1-.22.22-.22Z"/>
        <path class="cls-1" d="m39.29,55.01h.03c.12,0,.22.1.22.22s-.1.22-.22.22h-.03c-.12,0-.22-.1-.22-.22s.1-.22.22-.22Z"/>
        <path class="cls-1" d="m40,54.34h.03c.12,0,.22.1.22.22s-.1.22-.22.22h-.03c-.12,0-.22-.1-.22-.22s.1-.22.22-.22Z"/>
        <path class="cls-1" d="m41.39,52.95h.03c.12,0,.22.1.22.22s-.1.22-.22.22h-.03c-.12,0-.22-.1-.22-.22s.1-.22.22-.22Z"/>
        <path class="cls-1" d="m42.07,52.24h.03c.12,0,.22.1.22.22s-.1.22-.22.22h-.03c-.12,0-.22-.1-.22-.22s.1-.22.22-.22Z"/>
        <path class="cls-1" d="m40.68,55.01h.03c.12,0,.22.1.22.22s-.1.22-.22.22h-.03c-.12,0-.22-.1-.22-.22s.1-.22.22-.22Z"/>
        <path class="cls-1" d="m42.07,53.62h.03c.12,0,.22.1.22.22s-.1.22-.22.22h-.03c-.12,0-.22-.1-.22-.22s.1-.22.22-.22Z"/>
        <polyline class="cls-5" points="39.29 55.79 38.15 55.62 37.14 55.03 36.41 54.14 35.99 53.05 35.99 51.9 36.41 50.81 37.14 49.89 38.15 49.33 39.29 49.12 40.45 49.33 41.45 49.89 42.19 50.81 42.6 51.9 42.6 53.05 42.19 54.14 42.04 54.32"/>
        <polyline class="cls-5" points="40.98 55.3 40.45 55.62 39.29 55.79"/>
        <line class="cls-5" x1="13.97" y1="55.88" x2="8.57" y2="60.05"/>
        <line class="cls-5" x1="19.04" y1="54.2" x2="35.96" y2="52.76"/>
        <line class="cls-5" x1="13.11" y1="52.93" x2="12.55" y2="53.49"/>
        <line class="cls-5" x1="12.4" y1="54.35" x2="13.2" y2="53.55"/>
        <line class="cls-5" x1="13.41" y1="54.05" x2="12.46" y2="55"/>
        <line class="cls-5" x1="12.58" y1="55.56" x2="13.64" y2="54.5"/>
        <line class="cls-5" x1="13.91" y1="54.91" x2="12.79" y2="56.03"/>
        <line class="cls-5" x1="13.67" y1="55.86" x2="14.23" y2="55.3"/>
        <line class="cls-5" x1="14.56" y1="55.65" x2="13.67" y2="56.53"/>
        <line class="cls-5" x1="13.76" y1="57.15" x2="14.91" y2="56"/>
        <line class="cls-5" x1="15.29" y1="56.3" x2="14.17" y2="57.42"/>
        <line class="cls-5" x1="14.67" y1="57.63" x2="15.71" y2="56.59"/>
        <line class="cls-5" x1="16.18" y1="56.83" x2="15.23" y2="57.77"/>
        <line class="cls-5" x1="15.88" y1="57.8" x2="16.68" y2="57"/>
        <line class="cls-5" x1="17.27" y1="57.12" x2="16.71" y2="57.65"/>
        <polyline class="cls-5" points="15.74 57.8 14.61 57.63 13.58 57.04 13.49 56.89"/>
        <polyline class="cls-5" points="12.82 56.06 12.46 55.06 12.46 53.91 12.88 52.81 13.58 51.93 14.61 51.34 15.74 51.16 16.89 51.34 17.89 51.93 18.63 52.81 19.01 53.91 19.01 54.2"/>
        <polyline class="cls-5" points="19.01 54.2 19.01 55.06 18.63 56.15 17.89 57.04 16.89 57.63 15.74 57.8"/>
        <line class="cls-5" x1="109.27" y1="88.2" x2="113.84" y2="85.28"/>
        <polyline class="cls-5" points="108 91.03 107.14 90.82 106.44 90.26 106.05 89.47 106.05 88.58 106.44 87.78 107.14 87.22 108 87.02 108.86 87.22 109.47 87.72"/>
        <polyline class="cls-5" points="109.77 88.23 109.95 88.58 109.95 89.47 109.56 90.26 108.86 90.82 108 91.03"/>
        <line class="cls-5" x1="10.58" y1="41.87" x2="14.47" y2="51.4"/>
        <polyline class="cls-5" points="9.84 42.02 8.95 41.84 8.28 41.28 7.89 40.48 7.89 39.6 8.28 38.8 8.95 38.24 9.84 38.06 10.69 38.24 11.37 38.8 11.75 39.6 11.75 40.48 11.37 41.28 10.69 41.84"/>
        <line class="cls-5" x1="10.52" y1="41.87" x2="9.84" y2="42.02"/>
        <line class="cls-5" x1="155.5" y1="39.04" x2="163.55" y2="43.4"/>
        <line class="cls-5" x1="151.2" y1="36.56" x2="150.67" y2="37.09"/>
        <line class="cls-5" x1="150.52" y1="37.94" x2="151.29" y2="37.18"/>
        <line class="cls-5" x1="151.46" y1="37.68" x2="150.55" y2="38.59"/>
        <line class="cls-5" x1="150.67" y1="39.15" x2="151.73" y2="38.12"/>
        <line class="cls-5" x1="151.99" y1="38.53" x2="150.87" y2="39.65"/>
        <line class="cls-5" x1="151.17" y1="40.07" x2="152.29" y2="38.91"/>
        <line class="cls-5" x1="152.64" y1="39.27" x2="151.46" y2="40.45"/>
        <line class="cls-5" x1="151.85" y1="40.77" x2="153" y2="39.62"/>
        <line class="cls-5" x1="153.38" y1="39.92" x2="152.26" y2="41.04"/>
        <line class="cls-5" x1="152.76" y1="41.25" x2="153.79" y2="40.18"/>
        <line class="cls-5" x1="154.23" y1="40.45" x2="153.32" y2="41.37"/>
        <line class="cls-5" x1="153.97" y1="41.39" x2="154.74" y2="40.63"/>
        <line class="cls-5" x1="155.36" y1="40.72" x2="154.83" y2="41.25"/>
        <polyline class="cls-5" points="153.79 41.42 152.67 41.22 151.67 40.63 150.93 39.77 150.55 38.68 150.55 37.56 150.93 36.47 151.67 35.58 152.67 35.02 153.79 34.84 154.92 35.02 155.92 35.58 156.65 36.47 157.04 37.56 157.04 38.68 156.89 39.12"/>
        <polyline class="cls-5" points="156.33 40.16 155.92 40.63 154.92 41.22 153.79 41.42"/>
        <line class="cls-5" x1="132.24" y1="42.6" x2="121.53" y2="49.54"/>
        <line class="cls-5" x1="121.51" y1="49.39" x2="132.41" y2="42.37"/>
        <line class="cls-5" x1="132.45" y1="42.25" x2="121.44" y2="49.27"/>
        <line class="cls-5" x1="121.39" y1="49.12" x2="132.45" y2="42.1"/>
        <line class="cls-5" x1="132.41" y1="42.02" x2="121.33" y2="48.98"/>
        <line class="cls-5" x1="121.24" y1="48.86" x2="132.39" y2="41.9"/>
        <line class="cls-5" x1="132.36" y1="41.81" x2="121.18" y2="48.74"/>
        <line class="cls-5" x1="121.09" y1="48.62" x2="132.3" y2="41.72"/>
        <line class="cls-5" x1="132.24" y1="41.63" x2="121" y2="48.48"/>
        <line class="cls-5" x1="120.92" y1="48.36" x2="132.15" y2="41.57"/>
        <line class="cls-5" x1="132.06" y1="41.48" x2="120.86" y2="48.24"/>
        <line class="cls-5" x1="120.74" y1="48.12" x2="131.94" y2="41.46"/>
        <line class="cls-5" x1="131.83" y1="41.39" x2="120.65" y2="48.04"/>
        <polyline class="cls-5" points="120.53 47.91 131.53 41.46 131.83 41.39 131.94 41.46 132.06 41.48 132.15 41.57 132.24 41.63 132.3 41.72 132.36 41.81 132.39 41.9 132.41 42.02 132.45 42.1 132.45 42.25 132.41 42.37 132.24 42.6"/>
        <line class="cls-5" x1="136.78" y1="40.54" x2="150.55" y2="38.59"/>
        <line class="cls-5" x1="130.44" y1="39.95" x2="132.5" y2="37.88"/>
        <line class="cls-5" x1="134.01" y1="37.77" x2="130.29" y2="41.48"/>
        <line class="cls-5" x1="131.74" y1="41.42" x2="135.07" y2="38.09"/>
        <line class="cls-5" x1="135.87" y1="38.68" x2="132.98" y2="41.57"/>
        <line class="cls-5" x1="132.03" y1="43.93" x2="136.45" y2="39.48"/>
        <line class="cls-5" x1="136.78" y1="40.54" x2="133.06" y2="44.26"/>
        <line class="cls-5" x1="134.6" y1="44.11" x2="136.66" y2="42.04"/>
        <polyline class="cls-5" points="133.54 44.29 132.41 44.08 131.53 43.58"/>
        <polyline class="cls-5" points="130.32 41.63 130.29 41.57 130.29 40.42 130.71 39.36 131.44 38.5 132.41 37.91 133.54 37.7 134.66 37.91 135.66 38.5 136.4 39.36 136.78 40.42 136.78 41.57 136.4 42.67 135.66 43.52 134.66 44.08 133.54 44.29"/>
        <line class="cls-5" x1="76.27" y1="42.6" x2="80.52" y2="45.79"/>
        <path class="cls-1" d="m72.17,39.99h.03c.12,0,.22.1.22.22s-.1.22-.22.22h-.03c-.12,0-.22-.1-.22-.22s.1-.22.22-.22Z"/>
        <path class="cls-1" d="m72.85,39.31h.03c.12,0,.22.1.22.22s-.1.22-.22.22h-.03c-.12,0-.22-.1-.22-.22s.1-.22.22-.22Z"/>
        <path class="cls-1" d="m73.56,38.61h.03c.12,0,.22.1.22.22s-.1.22-.22.22h-.03c-.12,0-.22-.1-.22-.22s.1-.22.22-.22Z"/>
        <path class="cls-1" d="m72.17,41.38h.03c.12,0,.22.1.22.22s-.1.22-.22.22h-.03c-.12,0-.22-.1-.22-.22s.1-.22.22-.22Z"/>
        <path class="cls-1" d="m72.85,40.7h.03c.12,0,.22.1.22.22s-.1.22-.22.22h-.03c-.12,0-.22-.1-.22-.22s.1-.22.22-.22Z"/>
        <path class="cls-1" d="m73.56,39.99h.03c.12,0,.22.1.22.22s-.1.22-.22.22h-.03c-.12,0-.22-.1-.22-.22s.1-.22.22-.22Z"/>
        <path class="cls-1" d="m74.24,39.31h.03c.12,0,.22.1.22.22s-.1.22-.22.22h-.03c-.12,0-.22-.1-.22-.22s.1-.22.22-.22Z"/>
        <path class="cls-1" d="m74.94,38.61h.03c.12,0,.22.1.22.22s-.1.22-.22.22h-.03c-.12,0-.22-.1-.22-.22s.1-.22.22-.22Z"/>
        <path class="cls-1" d="m72.17,42.77h.03c.12,0,.22.1.22.22s-.1.22-.22.22h-.03c-.12,0-.22-.1-.22-.22s.1-.22.22-.22Z"/>
        <path class="cls-1" d="m72.85,42.09h.03c.12,0,.22.1.22.22s-.1.22-.22.22h-.03c-.12,0-.22-.1-.22-.22s.1-.22.22-.22Z"/>
        <path class="cls-1" d="m73.56,41.38h.03c.12,0,.22.1.22.22s-.1.22-.22.22h-.03c-.12,0-.22-.1-.22-.22s.1-.22.22-.22Z"/>
        <path class="cls-1" d="m74.24,40.7h.03c.12,0,.22.1.22.22s-.1.22-.22.22h-.03c-.12,0-.22-.1-.22-.22s.1-.22.22-.22Z"/>
        <path class="cls-1" d="m74.94,39.99h.03c.12,0,.22.1.22.22s-.1.22-.22.22h-.03c-.12,0-.22-.1-.22-.22s.1-.22.22-.22Z"/>
        <path class="cls-1" d="m75.62,39.31h.03c.12,0,.22.1.22.22s-.1.22-.22.22h-.03c-.12,0-.22-.1-.22-.22s.1-.22.22-.22Z"/>
        <path class="cls-1" d="m76.33,38.61h.03c.12,0,.22.1.22.22s-.1.22-.22.22h-.03c-.12,0-.22-.1-.22-.22s.1-.22.22-.22Z"/>
        <path class="cls-1" d="m72.85,43.48h.03c.12,0,.22.1.22.22s-.1.22-.22.22h-.03c-.12,0-.22-.1-.22-.22s.1-.22.22-.22Z"/>
        <path class="cls-1" d="m73.56,42.77h.03c.12,0,.22.1.22.22s-.1.22-.22.22h-.03c-.12,0-.22-.1-.22-.22s.1-.22.22-.22Z"/>
        <path class="cls-1" d="m74.24,42.09h.03c.12,0,.22.1.22.22s-.1.22-.22.22h-.03c-.12,0-.22-.1-.22-.22s.1-.22.22-.22Z"/>
        <path class="cls-1" d="m74.94,41.38h.03c.12,0,.22.1.22.22s-.1.22-.22.22h-.03c-.12,0-.22-.1-.22-.22s.1-.22.22-.22Z"/>
        <path class="cls-1" d="m75.62,40.7h.03c.12,0,.22.1.22.22s-.1.22-.22.22h-.03c-.12,0-.22-.1-.22-.22s.1-.22.22-.22Z"/>
        <path class="cls-1" d="m76.33,39.99h.03c.12,0,.22.1.22.22s-.1.22-.22.22h-.03c-.12,0-.22-.1-.22-.22s.1-.22.22-.22Z"/>
        <path class="cls-1" d="m77.01,39.31h.03c.12,0,.22.1.22.22s-.1.22-.22.22h-.03c-.12,0-.22-.1-.22-.22s.1-.22.22-.22Z"/>
        <path class="cls-1" d="m73.56,44.15h.03c.12,0,.22.1.22.22s-.1.22-.22.22h-.03c-.12,0-.22-.1-.22-.22s.1-.22.22-.22Z"/>
        <path class="cls-1" d="m74.24,43.48h.03c.12,0,.22.1.22.22s-.1.22-.22.22h-.03c-.12,0-.22-.1-.22-.22s.1-.22.22-.22Z"/>
        <path class="cls-1" d="m74.94,42.77h.03c.12,0,.22.1.22.22s-.1.22-.22.22h-.03c-.12,0-.22-.1-.22-.22s.1-.22.22-.22Z"/>
        <path class="cls-1" d="m75.62,42.09h.03c.12,0,.22.1.22.22s-.1.22-.22.22h-.03c-.12,0-.22-.1-.22-.22s.1-.22.22-.22Z"/>
        <path class="cls-1" d="m76.33,41.38h.03c.12,0,.22.1.22.22s-.1.22-.22.22h-.03c-.12,0-.22-.1-.22-.22s.1-.22.22-.22Z"/>
        <path class="cls-1" d="m77.01,40.7h.03c.12,0,.22.1.22.22s-.1.22-.22.22h-.03c-.12,0-.22-.1-.22-.22s.1-.22.22-.22Z"/>
        <path class="cls-1" d="m77.72,39.99h.03c.12,0,.22.1.22.22s-.1.22-.22.22h-.03c-.12,0-.22-.1-.22-.22s.1-.22.22-.22Z"/>
        <path class="cls-1" d="m74.94,44.15h.03c.12,0,.22.1.22.22s-.1.22-.22.22h-.03c-.12,0-.22-.1-.22-.22s.1-.22.22-.22Z"/>
        <path class="cls-1" d="m75.62,43.48h.03c.12,0,.22.1.22.22s-.1.22-.22.22h-.03c-.12,0-.22-.1-.22-.22s.1-.22.22-.22Z"/>
        <path class="cls-1" d="m76.33,42.77h.03c.12,0,.22.1.22.22s-.1.22-.22.22h-.03c-.12,0-.22-.1-.22-.22s.1-.22.22-.22Z"/>
        <path class="cls-1" d="m77.01,42.09h.03c.12,0,.22.1.22.22s-.1.22-.22.22h-.03c-.12,0-.22-.1-.22-.22s.1-.22.22-.22Z"/>
        <path class="cls-1" d="m77.72,41.38h.03c.12,0,.22.1.22.22s-.1.22-.22.22h-.03c-.12,0-.22-.1-.22-.22s.1-.22.22-.22Z"/>
        <path class="cls-1" d="m76.33,44.15h.03c.12,0,.22.1.22.22s-.1.22-.22.22h-.03c-.12,0-.22-.1-.22-.22s.1-.22.22-.22Z"/>
        <polyline class="cls-5" points="74.94 44.88 73.82 44.67 72.82 44.11 72.12 43.25 71.73 42.16 71.73 41.04 72.12 39.98 72.82 39.09 73.82 38.53 74.94 38.33 76.07 38.53 77.04 39.09 77.77 39.98 78.16 41.04 78.16 42.16 77.86 42.99"/>
        <polyline class="cls-5" points="77.07 44.05 77.04 44.11 76.07 44.67 74.94 44.88"/>
        <line class="cls-5" x1="14.88" y1="62.29" x2="15.38" y2="57.8"/>
        <polyline class="cls-5" points="14.76 65.44 13.91 65.24 13.23 64.71 12.88 63.94 12.88 63.05 13.23 62.26 13.91 61.73 14.61 61.58"/>
        <polyline class="cls-5" points="15.32 61.67 15.62 61.73 16.3 62.26 16.68 63.05 16.68 63.94 16.3 64.71 15.62 65.24 14.76 65.44"/>
        <line class="cls-5" x1="51.56" y1="44.88" x2="42.16" y2="50.72"/>
        <line class="cls-5" x1="56.78" y1="43.31" x2="71.67" y2="41.9"/>
        <line class="cls-5" x1="51.03" y1="42.02" x2="50.56" y2="42.52"/>
        <line class="cls-5" x1="50.35" y1="43.4" x2="51.12" y2="42.63"/>
        <line class="cls-5" x1="51.3" y1="43.16" x2="50.38" y2="44.08"/>
        <line class="cls-5" x1="50.5" y1="44.64" x2="51.53" y2="43.61"/>
        <line class="cls-5" x1="51.8" y1="44.02" x2="50.97" y2="44.88"/>
        <line class="cls-5" x1="51.62" y1="44.91" x2="52.12" y2="44.4"/>
        <line class="cls-5" x1="52.45" y1="44.79" x2="51.3" y2="45.91"/>
        <line class="cls-5" x1="51.68" y1="46.23" x2="52.8" y2="45.11"/>
        <line class="cls-5" x1="53.21" y1="45.41" x2="52.09" y2="46.5"/>
        <line class="cls-5" x1="52.6" y1="46.7" x2="53.63" y2="45.7"/>
        <line class="cls-5" x1="54.07" y1="45.94" x2="53.16" y2="46.85"/>
        <line class="cls-5" x1="53.83" y1="46.85" x2="54.57" y2="46.12"/>
        <line class="cls-5" x1="55.19" y1="46.21" x2="54.72" y2="46.68"/>
        <polyline class="cls-5" points="53.6 46.88 52.48 46.68 51.5 46.12 51.15 45.67"/>
        <polyline class="cls-5" points="50.65 44.91 50.41 44.2 50.41 43.05 50.79 42.02 51.5 41.13 52.48 40.57 53.6 40.39 54.72 40.57 55.69 41.13 56.43 42.02 56.78 43.05 56.78 43.19"/>
        <polyline class="cls-5" points="56.78 43.43 56.78 44.2 56.43 45.26 55.69 46.12 54.72 46.68 53.6 46.88"/>
        <line class="cls-5" x1="162.23" y1="31.77" x2="156.42" y2="36.14"/>
        <line class="cls-5" x1="161.02" y1="29.27" x2="162.82" y2="27.44"/>
        <line class="cls-5" x1="164.41" y1="27.26" x2="160.81" y2="30.83"/>
        <line class="cls-5" x1="161.13" y1="31.89" x2="165.47" y2="27.58"/>
        <line class="cls-5" x1="166.27" y1="28.18" x2="161.9" y2="32.54"/>
        <line class="cls-5" x1="162.52" y1="33.28" x2="166.86" y2="28.97"/>
        <line class="cls-5" x1="167.18" y1="30.04" x2="163.58" y2="33.6"/>
        <line class="cls-5" x1="165.17" y1="33.43" x2="166.98" y2="31.63"/>
        <polyline class="cls-5" points="163.99 33.63 162.9 33.46 161.93 32.9 161.78 32.72"/>
        <polyline class="cls-5" points="161.17 31.92 160.84 30.98 160.84 29.89 161.22 28.83 161.93 27.97 162.9 27.41 163.99 27.23 165.09 27.41 166.06 27.97 166.77 28.83 167.15 29.89 167.15 30.98 166.77 32.04 166.06 32.9 165.09 33.46 163.99 33.63"/>
        <polyline class="cls-5" points="104.26 34.58 103.43 34.4 102.75 33.87 102.4 33.07 102.4 32.22 102.75 31.45 103.43 30.92 104.26 30.74 105.11 30.92 105.76 31.45 106.14 32.22 106.14 33.07 105.76 33.87 105.11 34.4 104.26 34.58"/>
        <line class="cls-5" x1="88.01" y1="34.55" x2="77.81" y2="40.04"/>
        <line class="cls-5" x1="93.05" y1="33.28" x2="102.34" y2="32.78"/>
        <line class="cls-5" x1="87.57" y1="31.77" x2="87.13" y2="32.22"/>
        <line class="cls-5" x1="86.89" y1="33.13" x2="87.62" y2="32.42"/>
        <line class="cls-5" x1="87.8" y1="32.95" x2="86.92" y2="33.81"/>
        <line class="cls-5" x1="87.04" y1="34.4" x2="88.04" y2="33.4"/>
        <line class="cls-5" x1="88.3" y1="33.81" x2="87.62" y2="34.49"/>
        <line class="cls-5" x1="87.68" y1="35.14" x2="88.6" y2="34.19"/>
        <line class="cls-5" x1="88.92" y1="34.58" x2="87.83" y2="35.7"/>
        <line class="cls-5" x1="88.18" y1="36.02" x2="89.3" y2="34.9"/>
        <line class="cls-5" x1="89.69" y1="35.2" x2="88.63" y2="36.29"/>
        <line class="cls-5" x1="89.1" y1="36.47" x2="90.1" y2="35.49"/>
        <line class="cls-5" x1="90.57" y1="35.73" x2="89.69" y2="36.62"/>
        <line class="cls-5" x1="90.37" y1="36.62" x2="91.08" y2="35.91"/>
        <line class="cls-5" x1="91.72" y1="35.93" x2="91.28" y2="36.38"/>
        <polyline class="cls-5" points="90.07 36.62 88.98 36.44 88.01 35.88 87.54 35.32"/>
        <polyline class="cls-5" points="87.13 34.52 86.95 33.99 86.95 32.9 87.33 31.86 88.01 31.01 88.98 30.45 90.07 30.27 91.13 30.45 92.11 31.01 92.81 31.86 93.2 32.9 93.2 33.04"/>
        <polyline class="cls-5" points="93.2 33.49 93.2 33.99 92.81 35.05 92.11 35.88 91.13 36.44 90.07 36.62"/>
        <line class="cls-5" x1="86.21" y1="21.42" x2="89.1" y2="30.42"/>
        <polyline class="cls-5" points="85.65 21.56 84.83 21.36 84.18 20.83 83.79 20.09 83.79 19.23 84.18 18.47 84.83 17.97 85.65 17.76 86.48 17.97 87.13 18.47 87.51 19.23 87.51 20.09 87.13 20.83 86.48 21.36 86.33 21.39"/>
        <line class="cls-5" x1="86.12" y1="21.45" x2="85.65" y2="21.56"/>
        <line class="cls-5" x1="48.61" y1="39.27" x2="51.15" y2="41.48"/>
        <line class="cls-5" x1="44.63" y1="37.06" x2="46.25" y2="35.43"/>
        <line class="cls-5" x1="47.88" y1="35.2" x2="44.4" y2="38.68"/>
        <line class="cls-5" x1="44.72" y1="39.74" x2="48.97" y2="35.52"/>
        <line class="cls-5" x1="49.76" y1="36.08" x2="45.28" y2="40.57"/>
        <line class="cls-5" x1="46.11" y1="41.16" x2="50.35" y2="36.91"/>
        <line class="cls-5" x1="50.65" y1="37.97" x2="49.2" y2="39.42"/>
        <line class="cls-5" x1="48.82" y1="39.83" x2="47.17" y2="41.46"/>
        <line class="cls-5" x1="48.82" y1="41.22" x2="49.29" y2="40.72"/>
        <line class="cls-5" x1="50.23" y1="39.8" x2="50.41" y2="39.6"/>
        <polyline class="cls-5" points="47.52 41.48 46.46 41.31 45.52 40.75 44.81 39.89 44.43 38.89 44.43 37.77 44.81 36.76 45.52 35.91 46.46 35.37 47.52 35.17 48.61 35.37 49.56 35.91 50.26 36.76 50.65 37.77 50.65 38.89 50.3 39.83"/>
        <polyline class="cls-5" points="49.38 40.86 48.61 41.31 47.52 41.48"/>
        <line class="cls-5" x1="90.04" y1="41.57" x2="90.04" y2="36.62"/>
        <polyline class="cls-5" points="90.01 44.61 89.22 44.44 88.57 43.9 88.21 43.16 88.21 42.31 88.57 41.57 89.22 41.07 89.69 40.95"/>
        <polyline class="cls-5" points="90.37 40.95 90.84 41.07 91.49 41.57 91.84 42.31 91.84 43.16 91.49 43.9 90.84 44.44 90.01 44.61"/>
        <path class="cls-1" d="m80.3,56.24v-4.28l2.51,4.16-.41.11v-3.48c0-.12.1-.22.22-.22s.22.1.22.22v4.28l-2.5-4.16.41-.11v3.48c0,.12-.1.22-.22.22s-.22-.1-.22-.22Z"/>
        <path class="cls-1" d="m83.63,56.29l-.09-.35v.02s-.12-.37-.12-.37l-.06-.37-.03-.18h0s-.06-.34-.06-.34v-.39l.06-.37.03-.18.06-.34.12-.37v.02s.08-.36.08-.36c.03-.12.15-.19.27-.16.12.03.19.15.16.27l-.09.36-.12.36v-.03s-.05.32-.05.32h0s-.03.17-.03.17l-.06.35v-.04.35-.04s.06.32.06.32l.03.18.06.36v-.04s.11.36.11.36l.09.36c.03.12-.04.24-.16.27-.12.03-.24-.04-.27-.16Z"/>
        <path class="cls-1" d="m84.6,53.31l1.06-1.11v4.03c0,.12-.1.22-.22.22s-.22-.1-.22-.22v-3.48l.38.15-.68.71c-.09.09-.22.09-.31,0-.09-.09-.09-.22,0-.31Z"/>
        <path class="cls-1" d="m86.32,56.18l.09-.36.12-.36v.04s.05-.36.05-.36l.03-.18.06-.32v.04s0-.35,0-.35v.04s-.05-.35-.05-.35l-.03-.18h0s-.06-.32-.06-.32v.03s-.11-.36-.11-.36l-.09-.36c-.03-.12.04-.24.16-.27.12-.03.24.04.27.16l.09.36v-.02s.12.37.12.37l.06.34.03.18.06.37v.39l-.06.34h0s-.03.17-.03.17l-.06.37-.12.37v-.02s-.09.35-.09.35c-.03.12-.15.19-.27.16-.12-.03-.19-.15-.16-.27Z"/>
        <path class="cls-1" d="m121.37,58.1v-4.24l2.5,4.13-.41.11v-3.45c0-.12.1-.22.22-.22s.22.1.22.22v4.24l-2.5-4.13.41-.11v3.45c0,.12-.1.22-.22.22s-.22-.1-.22-.22Z"/>
        <path class="cls-1" d="m124.53,58.1v-2.07c0-.12.1-.22.22-.22s.22.1.22.22v2.07c0,.12-.1.22-.22.22s-.22-.1-.22-.22Z"/>
        <path class="cls-1" d="m124.97,55.32v.03c0,.12-.1.22-.22.22s-.22-.1-.22-.22v-.03c0-.12.1-.22.22-.22s.22.1.22.22Z"/>
        <path class="cls-1" d="m125.95,58.15l-.09-.32h0s-.12-.36-.12-.36l-.06-.37-.03-.19-.03-.37v-.35l.03-.37.03-.19.06-.37.12-.34v.02s.08-.35.08-.35c.03-.12.15-.19.27-.16.12.03.19.15.16.27l-.09.36-.12.34v-.04s-.05.35-.05.35l-.03.18v-.02s-.03.35-.03.35v-.02s0,.32,0,.32v-.02s.03.35.03.35v-.02s.02.18.02.18l.06.35v-.04s.11.36.11.36l.09.33c.03.12-.04.24-.15.27s-.24-.04-.27-.16Z"/>
        <path class="cls-1" d="m126.92,55.17l1.06-1.06v3.99c0,.12-.1.22-.22.22s-.22-.1-.22-.22v-3.45l.38.16-.68.68c-.09.09-.23.09-.31,0-.09-.09-.09-.23,0-.31Z"/>
        <path class="cls-1" d="m128.63,58.04l.09-.33.12-.36v.04s.05-.35.05-.35l.03-.18.06-.35v.04s0-.32,0-.32v.04s-.06-.35-.06-.35l-.03-.18-.06-.35v.04s-.11-.34-.11-.34l-.09-.36c-.03-.12.04-.24.16-.27.12-.03.24.04.27.16l.09.35v-.02s.12.34.12.34l.06.37.03.18.06.37v.36l-.06.37-.03.18-.06.37-.12.37h0s-.09.31-.09.31c-.03.12-.15.19-.27.16s-.19-.15-.16-.27Z"/>
        <path class="cls-1" d="m148.5,49.81v-4.25l2.47,4.14-.41.11v-3.45c0-.12.1-.22.22-.22s.22.1.22.22v4.25l-2.47-4.14.41-.11v3.45c0,.12-.1.22-.22.22s-.22-.1-.22-.22Z"/>
        <path class="cls-1" d="m151.84,49.88l-.12-.34-.09-.36-.09-.36-.03-.2-.03-.37v-.34l.03-.37.03-.2.09-.36.09-.34.12-.36c.04-.12.16-.18.28-.14.12.04.18.16.14.28l-.12.35h0s-.09.31-.09.31h0s-.09.35-.09.35v-.02s-.02.17-.02.17v-.02l-.03.36v-.02.32-.02l.03.35v-.02l.03.18v-.02s.09.35.09.35l.09.36v-.02s.11.32.11.32c.04.12-.02.24-.13.29-.11.04-.24-.02-.29-.13Z"/>
        <path class="cls-1" d="m153.24,49.09l.15.21h0s.12.14.12.14l-.05-.04.21.15-.07-.03.21.06h-.02s.15.02.15.02h-.04s.21,0,.21,0h-.04s.15-.02.15-.02h-.02s.21-.06.21-.06l-.07.03.21-.15-.03.02.15-.15-.04.05.12-.2v.02s.07-.21.07-.21v.03s.02-.12.02-.12v.05s0-.21,0-.21v.05s-.02-.15-.02-.15v.05s-.07-.21-.07-.21v.02s-.11-.21-.11-.21l.04.05-.15-.15.03.02-.21-.15.07.03-.21-.06h.02s-.15-.02-.15-.02h.04s-.21,0-.21,0h.03s-.24.03-.24.03l-.36.03.08-.02-.5.25v-2.12h2.02c.12,0,.22.1.22.22s-.1.22-.22.22h-1.8l.22-.22v1.53l-.32-.2.22-.11.4-.04h-.01s.25-.03.25-.03h.24l.18.04.25.07.25.18.18.18.14.25.1.24.04.19v.26l-.04.16-.1.24-.14.24-.18.18-.25.18-.25.07-.18.04h-.25l-.18-.04-.25-.07-.26-.19-.14-.17-.15-.21c-.07-.1-.05-.24.05-.31.1-.07.24-.05.31.05Z"/>
        <path class="cls-1" d="m155.71,49.73l.12-.32v.02s.08-.36.08-.36l.09-.35v.02s.03-.18.03-.18v.02s.02-.35.02-.35v.02-.32.02l-.03-.36v.02s-.03-.17-.03-.17v.02s-.09-.36-.09-.36h0s-.09-.32-.09-.32h0s-.12-.34-.12-.34c-.04-.12.02-.24.14-.28.12-.04.24.03.28.14l.12.36.09.34.09.36.03.2.03.37v.34l-.03.37-.03.2-.09.36-.09.36-.12.34c-.04.11-.17.17-.28.13-.12-.04-.17-.17-.14-.29Z"/>
      </g>
    </g>
  </g>
</svg>